<svg width="30" height="30" viewBox="0 0 30 30" fill="none" xmlns="http://www.w3.org/2000/svg">
<path d="M10.4958 14.9973C10.4956 15.8872 10.7592 16.7573 11.2535 17.4974C11.7477 18.2374 12.4503 18.8143 13.2724 19.1551C14.0946 19.4958 14.9993 19.5851 15.8722 19.4117C16.745 19.2382 17.5469 18.8098 18.1762 18.1806C18.8056 17.5514 19.2343 16.7497 19.408 15.8769C19.5817 15.0041 19.4927 14.0993 19.1522 13.2771C18.8117 12.4549 18.235 11.7521 17.495 11.2576C16.7551 10.7632 15.8851 10.4993 14.9952 10.4993C13.8031 10.5024 12.6607 10.9773 11.8177 11.8201C10.9746 12.663 10.4994 13.8052 10.4958 14.9973V14.9973Z" fill="white"/>
<path d="M29.7755 12.4435V12.4468C29.6657 11.7928 29.5091 11.1475 29.3068 10.5159H29.2994C29.5048 11.1505 29.663 11.7995 29.7728 12.4576C29.6627 11.7996 29.5045 11.1506 29.2994 10.5159H18.8947C20.1701 11.6541 20.9944 13.2054 20.9944 15.0052C20.9973 16.0599 20.7123 17.0954 20.1701 18.0001L13.3214 29.8959C13.3217 29.9019 13.3217 29.9079 13.3214 29.914V29.9327V29.9153C13.8773 29.9746 14.4361 30.0028 14.9952 29.9997C15.4532 29.9997 15.9065 29.9736 16.3544 29.9327C17.0254 29.8721 17.6916 29.766 18.3483 29.6154C25.017 28.0928 29.9931 22.1258 29.9931 14.9978C29.9932 14.1417 29.9204 13.2872 29.7755 12.4435V12.4435Z" fill="white"/>
<path d="M14.9952 20.9944C12.7455 20.9944 10.8708 19.7952 9.8203 17.9955L2.94339 6.1003L2.93401 6.08423C1.45011 8.09325 0.491423 10.4411 0.144983 12.9145C-0.201458 15.388 0.0753132 17.9089 0.950175 20.2483C1.82504 22.5876 3.27029 24.6715 5.15474 26.3107C7.0392 27.9499 9.30319 29.0925 11.7412 29.6349V29.6315L16.9429 20.6194C16.321 20.8586 15.6615 20.9856 14.9952 20.9944V20.9944Z" fill="white"/>
<path d="M3.96805 4.86298L9.14699 13.7847C9.41585 12.4306 10.1456 11.2115 11.212 10.3348C12.2784 9.45805 13.6156 8.9779 14.9962 8.97601H28.7332C28.261 7.93836 27.6826 6.95244 27.0071 6.03402L27.0152 6.03938C27.688 6.95613 28.2638 7.94028 28.7332 8.97601H28.7446C28.2755 7.93718 27.6997 6.94989 27.0266 6.03C27.0183 6.02486 27.0104 6.01904 27.0031 6.01259C25.6836 4.2485 23.9915 2.79687 22.0472 1.76097C20.103 0.725069 17.9543 0.130351 15.7541 0.0191233C13.5539 -0.0921043 11.3562 0.282891 9.31742 1.11743C7.2786 1.95198 5.44874 3.22556 3.95801 4.84758L3.96738 4.86365L3.96805 4.86298Z" fill="white"/>
</svg>
