<svg width="54" height="66" viewBox="0 0 54 66" fill="none"
    xmlns="http://www.w3.org/2000/svg">
    <path d="M42.7982 36.4639L41.6394 37.0819L31.751 42.5669V49.9059V51.0647" stroke="#393E50" stroke-width="2.5976" stroke-miterlimit="10" stroke-linejoin="round"/>
    <path d="M32.5236 50.6009V49.0558H27.4249L26.1888 43.4936L27.0386 41.0215L27.6566 41.3305C27.8884 41.485 28.1974 41.485 28.4292 41.4077C28.6609 41.3305 28.8927 41.0987 28.97 40.867L32.6781 32.4464C36.2318 32.6781 40.1717 35.073 41.5622 38.1631L42.3348 37.6996L43.8026 38.4721C42.5665 33.9914 37.1588 30.6695 32.4463 30.515L29.7425 28.0429C33.0644 25.6481 35.073 21.7082 35.073 17.5365V10.97C35.073 4.94421 30.1288 0 24.0257 0H20.0858C13.9828 0 9.11588 4.94421 9.11588 10.97V17.5365C9.11588 21.7082 11.1245 25.5708 14.3691 27.9657L11.588 30.4378C6.25751 30.6695 0 34.9957 0 40.4807V50.0601C0 50.6009 0.463519 51.0644 1.00429 51.0644H32.5236C32.5236 50.9099 32.5236 50.7554 32.5236 50.6009ZM30.9013 31.7511L27.5794 39.1674L23.485 37.0815L28.2747 29.4335L30.9013 31.7511ZM22.0172 38.6266L25.1073 40.1717L24.2575 42.4893H19.6996L18.927 40.0944L22.0172 38.6266ZM22.0172 35.6137L18.5408 30.0515C19.6996 30.3605 20.8584 30.515 22.0172 30.515C23.176 30.515 24.3348 30.3605 25.4936 30.0515L22.0172 35.6137ZM11.1245 10.97C11.1245 6.02575 15.1416 2.00858 20.0858 2.00858H24.103C29.0472 2.00858 33.1416 6.02575 33.1416 10.97V11.8197L31.2876 9.11588C31.133 8.88412 30.824 8.72961 30.515 8.65236C30.206 8.65236 29.897 8.72961 29.7425 8.96137C27.7339 11.0472 25.3391 11.9742 22.0944 11.9742C18.8498 11.9742 16.5322 11.0472 14.4464 8.96137C14.2146 8.72961 13.9056 8.65236 13.6738 8.65236C13.3648 8.65236 13.133 8.80687 12.9013 9.11588L11.1245 11.7425V10.97V10.97ZM11.1245 17.5365V15.2189L13.9056 11.1245C16.1459 12.9785 18.7725 13.9056 22.0944 13.9056C25.4163 13.9056 28.0429 12.9785 30.2833 11.1245L33.1416 15.2189V17.4592C33.1416 23.4077 28.2747 28.4292 22.0944 28.4292C15.9142 28.5064 11.1245 23.5622 11.1245 17.5365ZM15.8369 29.4335L20.6266 37.0815L16.5322 39.0901L13.2103 31.6738L15.8369 29.4335ZM16.6867 49.133H2.00858V40.4807C2.00858 36.3863 7.03004 32.8326 11.3562 32.5236L15.0644 40.9442C15.1416 41.176 15.3734 41.4077 15.6051 41.485C15.8369 41.5622 16.1459 41.5622 16.3777 41.4077L17.073 41.0215L17.9227 43.5708L16.6867 49.133ZM18.7725 49.133L19.8541 44.5751H24.2575L25.3391 49.133H18.7725Z" fill="#393E50"/>
    <path d="M43.3391 59.0209C47.588 59.0209 51.0644 55.7763 51.0644 51.6818C51.0644 47.5874 47.588 44.3428 43.3391 44.3428C39.0902 44.3428 35.6138 47.5874 35.6138 51.6818C35.6138 55.7763 39.0902 59.0209 43.3391 59.0209Z" fill="#FEFEFE"/>
    <path d="M33.605 44.5749L33.6822 51.914C33.6822 54.7723 34.532 57.5535 36.1543 59.9483C37.7767 62.3432 40.017 64.1972 42.6436 65.356L43.8024 65.8196L45.1157 65.2015C47.8196 64.0427 50.0599 62.1887 51.605 59.7166C53.2273 57.3217 53.9998 54.4633 53.9998 51.5277L53.9226 44.4204L43.4934 39.0127L33.605 44.5749ZM49.6737 49.0556C49.7509 49.1329 49.8282 49.2874 49.8282 49.3646C49.8282 49.4419 49.9054 49.5964 49.8282 49.7509C49.8282 49.9054 49.7509 49.9827 49.7509 50.0599C49.6737 50.1372 49.5964 50.2917 49.5191 50.2917L42.6436 55.9312C42.4891 56.0857 42.2573 56.1629 42.0256 56.1629C41.7166 56.1629 41.4848 56.0084 41.3303 55.8539L38.3174 52.3775C38.2402 52.3003 38.1629 52.1457 38.1629 52.0685C38.0857 51.9912 38.0857 51.8367 38.0857 51.6822C38.0857 51.5277 38.1629 51.4505 38.1629 51.296C38.2402 51.2187 38.3174 51.0642 38.3947 50.9869C38.4719 50.9097 38.6264 50.8324 38.7037 50.8324C38.7809 50.8324 38.9355 50.7552 39.09 50.7552C39.2445 50.7552 39.3217 50.8324 39.4762 50.8324C39.5535 50.9097 39.708 50.9869 39.7852 51.0642L42.1801 53.8453L48.3603 48.7466C48.5921 48.5921 48.8239 48.5921 49.0556 48.5921C49.2874 48.7466 49.5191 48.8239 49.6737 49.0556Z" fill="#7ABE6C"/>
</svg>
