<svg width="20" height="21" viewBox="0 0 20 21" fill="none" xmlns="http://www.w3.org/2000/svg">
<path d="M19.6468 12.4684H6.22822C6.22822 12.9743 6.30369 13.4324 6.45725 13.8458C6.62196 14.2527 6.83721 14.6182 7.10626 14.9358C7.37991 15.2541 7.69752 15.527 8.0742 15.7567C8.43316 15.9858 8.82558 16.1767 9.24688 16.3237C9.66359 16.474 10.1006 16.5869 10.5416 16.659C11.5023 16.8133 12.4834 16.8028 13.4395 16.6354C13.9324 16.5429 14.4108 16.4235 14.8859 16.2699C15.3577 16.1124 15.8118 15.9313 16.2698 15.7193C16.745 15.5027 17.2134 15.2714 17.6742 15.0257V19.4756C17.138 19.7354 16.6117 19.9579 16.0887 20.1449C15.5618 20.3293 15.0394 20.4908 14.5026 20.62C13.9698 20.7506 13.4297 20.8491 12.8725 20.9081C12.3056 20.9692 11.7307 21 11.1604 21C10.3749 21 9.6124 20.9081 8.88136 20.727C7.45569 20.3865 6.13907 19.6915 5.05357 18.7065C3.97528 17.73 3.18944 16.4732 2.78368 15.0762C2.57249 14.3337 2.46754 13.5651 2.47197 12.7932C2.47197 11.9322 2.58812 11.108 2.8283 10.3258C3.06717 9.53895 3.40578 8.82498 3.85005 8.16875C4.29793 7.50549 4.8453 6.91518 5.4729 6.41858C6.12913 5.89885 6.85689 5.47886 7.63321 5.17109C7.19095 5.61315 6.84428 6.14141 6.61474 6.72307C6.37544 7.29736 6.21794 7.90241 6.14685 8.52049H13.622C13.622 7.76517 13.5465 7.10894 13.3929 6.54458C13.2387 5.98088 12.9933 5.51299 12.6475 5.14025C12.3062 4.76751 11.8652 4.48402 11.3252 4.29962C10.7844 4.11522 10.1282 4.01941 9.36631 4.01941C8.464 4.01941 7.56234 4.14869 6.65937 4.42299C5.75705 4.68548 4.90002 5.0615 4.08629 5.53661C3.27762 6.01795 2.52566 6.58874 1.84461 7.23821C1.17971 7.86839 0.60055 8.58324 0.122009 9.3644C0.217163 8.49621 0.408782 7.6418 0.688992 6.81495C0.955235 6.02077 1.31311 5.26033 1.75536 4.54899C2.18557 3.86321 2.696 3.23118 3.27585 2.66626C3.85373 2.10143 4.50431 1.61615 5.21041 1.22322C5.93239 0.821084 6.70145 0.510062 7.5 0.297276C8.35643 0.0990335 9.23271 -0.000703985 10.1118 3.73999e-06C10.6479 3.73999e-06 11.1847 0.0479085 11.7182 0.143718C12.2544 0.242809 12.7741 0.376679 13.2833 0.543362C14.2598 0.874221 15.1746 1.36498 15.9903 1.9956C16.7671 2.59928 17.4431 3.32248 17.9931 4.13819C18.5388 4.96326 18.9549 5.8671 19.2268 6.81823C19.507 7.79207 19.6501 8.80726 19.6501 9.86051V12.4677L19.6468 12.4684Z" fill="white"/>
</svg>
