<svg width="30" height="30" viewBox="0 0 30 30" fill="none" xmlns="http://www.w3.org/2000/svg">
<path d="M28.5009 9.00529C29.9072 5.6264 30 2.81379 28.3106 1.12904C26.4355 -0.746039 21.9381 -0.184454 17.1576 2.06657H16.596C13.2171 2.06657 9.94045 3.28725 7.50379 5.44077C5.4384 7.31584 3.93927 9.7525 3.28487 12.4723C3.75364 11.9107 6.37593 8.81497 9.37887 7.13021C9.47168 7.13021 10.2189 6.66144 10.2189 6.66144C10.1261 6.66144 8.71978 8.06775 8.44133 8.3462C1.87857 15.0993 -1.9644 25.3147 1.03385 28.3129C3.00174 30.2808 6.56625 29.8121 10.6877 27.5657C12.4699 28.4057 14.4378 28.7817 16.596 28.7817C19.4086 28.7817 22.0309 28.0345 24.282 26.5307C26.6258 25.0316 28.3106 22.6877 29.3456 19.9726H22.0309C21.0934 21.7502 18.9399 22.9708 16.6888 22.9708C13.5003 22.9708 10.8733 20.3439 10.7852 17.3456V17.0625H29.9072V16.784C29.9072 16.3153 30 15.7537 30 15.3777C30 13.1267 29.4384 10.9732 28.5009 9.00529V9.00529ZM3.09455 27.7513C1.59543 26.2522 2.0642 23.3468 3.84646 19.8798C4.69118 22.2236 6.09748 24.2843 7.87506 25.7835C8.44133 26.2522 9.09573 26.721 9.75013 27.0969C6.75189 28.6889 4.31523 28.972 3.09455 27.7513V27.7513ZM22.3141 13.5027H10.878V13.4098C11.0636 10.5044 13.7834 7.97493 16.9673 7.97493C19.9702 7.97493 22.4069 10.3188 22.5925 13.4098V13.5027H22.3141ZM28.0321 8.25338C27.4705 7.31584 26.7186 6.37831 25.8739 5.63109C24.5682 4.41485 23.0416 3.46009 21.3765 2.81848C24.3748 1.41217 26.9043 1.22185 28.2177 2.53534C29.2481 3.75602 29.1553 5.81672 28.0321 8.25338C28.0321 8.3462 28.0321 8.3462 28.0321 8.25338C28.0321 8.3462 28.0321 8.3462 28.0321 8.25338Z" fill="white"/>
</svg>
