<svg width="30" height="30" viewBox="0 0 30 30" fill="none" xmlns="http://www.w3.org/2000/svg">
<path d="M15.1196 29.0767C8.64698 29.0767 3.51431 25.2882 1.14784 19.8871C-1.48274 13.8835 0.617418 4.2515 5.3161 0L5.13321 4.6958C5.3781 4.39938 7.16486 4.31902 7.45652 4.69895C8.41295 2.84602 11.546 1.45596 14.0632 1.41151C13.105 2.20707 10.8915 5.13192 11.09 6.63267C12.3098 7.0081 14.184 7.02499 15.169 7.09164C15.4677 7.25593 15.421 8.29137 14.8138 9.12617C14.0217 10.2154 11.9022 10.5971 11.9022 10.5971L12.1498 13.7663L9.82431 12.6425C9.07056 14.5393 10.8804 16.2394 12.7615 15.9176C14.829 15.5639 15.565 14.2143 17.0183 14.2986C18.4717 14.3829 19.0415 15.1791 18.8497 15.9356C18.6223 16.8322 17.0522 16.688 17.0522 16.688C15.7378 18.7837 13.983 19.6954 11.1321 19.4533C15.4594 23.0252 21.2741 19.781 22.7478 16.8589C24.2216 13.9369 22.9407 9.61481 21.4568 8.38235C23.2033 9.12992 24.4116 9.91105 25.039 11.5938C25.3838 7.84731 23.653 3.59659 20.5698 1.10677C26.3644 2.78666 29.8998 7.27705 29.9989 14.4451C30.098 21.6132 23.6556 29.0767 15.1196 29.0767V29.0767Z" fill="white"/>
</svg>
