<?xml version="1.0" encoding="utf-8"?>
<!-- Generator: Adobe Illustrator 16.0.0, SVG Export Plug-In . SVG Version: 6.00 Build 0)  -->
<!DOCTYPE svg PUBLIC "-//W3C//DTD SVG 1.1//EN" "http://www.w3.org/Graphics/SVG/1.1/DTD/svg11.dtd">
<svg version="1.1" id="Layer_1" xmlns="http://www.w3.org/2000/svg" xmlns:xlink="http://www.w3.org/1999/xlink" x="0px" y="0px"
	 width="24px" height="24px" viewBox="0 0 24 24" enable-background="new 0 0 24 24" xml:space="preserve">
<g>
	<path id="prefix__ic_password-a" fill="#323C5A" d="M18,9h2c0.553,0,1,0.448,1,1v12c0,0.553-0.447,1-1,1H4c-0.552,0-1-0.447-1-1V10
		c0-0.552,0.448-1,1-1h2V8c0-3.313,2.687-6,6-6s6,2.687,6,6V9z M5,11v10h14V11H5z M11,15h2v2h-2V15z M7,15h2v2H7V15z M15,15h2v2h-2
		V15z M16,9V8c0-2.209-1.791-4-4-4S8,5.791,8,8v1H16z"/>
</g>
</svg>
