<?xml version="1.0" encoding="UTF-8"?>
<svg xmlns="http://www.w3.org/2000/svg" xmlns:xlink="http://www.w3.org/1999/xlink" width="30pt" height="30pt" viewBox="0 0 30 30" version="1.1">
<g id="surface1">
<path style=" stroke:none;fill-rule:nonzero;fill:rgb(8.235294%,9.019608%,52.941176%);fill-opacity:1;" d="M 11.980469 29.789062 C 11.007812 29.523438 9.707031 28.765625 9.109375 28.117188 C 8.558594 27.519531 7.875 26.523438 7.714844 26.089844 C 7.472656 25.421875 7.300781 24.449219 7.289062 23.652344 C 7.277344 22.832031 7.175781 22.636719 6.917969 22.933594 C 6.714844 23.164062 5.46875 23.769531 5.191406 23.769531 C 5.078125 23.769531 4.847656 23.863281 4.683594 23.976562 C 4.324219 24.226562 3.925781 24.316406 3.523438 24.238281 C 3.308594 24.199219 3.167969 24.089844 2.984375 23.835938 C 2.6875 23.414062 2.675781 23.148438 2.941406 22.875 C 3.191406 22.625 3.292969 22.613281 3.359375 22.835938 C 3.425781 23.050781 3.828125 23.066406 3.992188 22.867188 C 4.195312 22.617188 4.132812 21.390625 3.871094 20.464844 C 3.542969 19.300781 3.488281 19.183594 3.316406 19.238281 C 3.195312 19.277344 3.160156 19.214844 3.113281 18.855469 C 3.082031 18.617188 2.90625 18.074219 2.726562 17.644531 C 2.546875 17.21875 2.34375 16.667969 2.277344 16.425781 C 2.207031 16.179688 2.117188 15.960938 2.082031 15.941406 C 2.046875 15.917969 1.96875 15.714844 1.910156 15.492188 C 1.851562 15.269531 1.730469 15.007812 1.640625 14.90625 C 1.523438 14.773438 1.5 14.667969 1.546875 14.523438 C 1.582031 14.417969 1.601562 14.289062 1.585938 14.242188 C 1.507812 13.984375 1.359375 12.042969 1.386719 11.574219 C 1.453125 10.378906 1.46875 10.253906 1.601562 10.050781 C 1.675781 9.933594 1.796875 9.609375 1.867188 9.332031 C 2.011719 8.757812 2.53125 7.40625 2.730469 7.085938 C 3.296875 6.167969 4.074219 5.40625 5.019531 4.839844 C 5.40625 4.609375 5.472656 4.5 6.316406 4.496094 L 7.234375 4.589844 L 7.582031 4.984375 C 7.8125 5.242188 7.960938 5.507812 8.007812 5.738281 C 8.050781 5.9375 8.128906 6.113281 8.179688 6.132812 C 8.230469 6.148438 8.359375 6.019531 8.464844 5.84375 C 9.054688 4.835938 10.773438 3.171875 11.898438 2.515625 C 12.347656 2.25 12.367188 2.226562 12.308594 1.976562 C 12.207031 1.523438 12.230469 0.957031 12.355469 0.695312 C 12.484375 0.429688 12.984375 0.0390625 13.148438 0.078125 C 13.199219 0.0898438 13.371094 0.273438 13.527344 0.480469 C 13.882812 0.960938 14.171875 1.078125 14.5 0.878906 C 14.796875 0.703125 15.019531 0.699219 15.570312 0.867188 C 15.804688 0.9375 16.316406 1 16.707031 1.007812 C 17.414062 1.019531 17.421875 1.019531 17.632812 1.300781 C 17.746094 1.457031 17.976562 1.664062 18.144531 1.757812 C 18.53125 1.980469 18.820312 2.410156 18.875 2.847656 C 18.925781 3.230469 18.867188 3.277344 18.664062 3.015625 C 18.578125 2.910156 18.386719 2.824219 18.171875 2.792969 C 17.835938 2.75 17.742188 2.8125 17.894531 2.984375 C 17.933594 3.027344 18.003906 3.1875 18.054688 3.339844 C 18.15625 3.652344 18.0625 3.699219 17.785156 3.484375 C 17.683594 3.40625 17.433594 3.363281 17.105469 3.363281 C 16.640625 3.363281 16.53125 3.398438 16.066406 3.699219 C 15.546875 4.035156 15.535156 4.039062 14.730469 4.039062 C 13.929688 4.039062 13.90625 4.046875 13.460938 4.347656 C 13.160156 4.550781 12.921875 4.800781 12.757812 5.085938 C 12.53125 5.488281 12.511719 5.574219 12.539062 6.199219 C 12.558594 6.714844 12.613281 6.984375 12.78125 7.339844 C 13.304688 8.460938 14.101562 8.925781 15.65625 9.011719 C 17.050781 9.085938 17.589844 8.886719 18.164062 8.074219 C 18.339844 7.828125 18.402344 7.640625 18.402344 7.367188 C 18.402344 7.046875 18.351562 6.941406 18.042969 6.597656 C 17.574219 6.082031 17.457031 5.738281 17.589844 5.28125 C 17.796875 4.585938 18.546875 4.074219 19.726562 3.828125 C 20.855469 3.59375 21.625 3.71875 22.886719 4.347656 C 23.203125 4.503906 23.484375 4.632812 23.507812 4.632812 C 23.644531 4.632812 24.96875 5.664062 25.363281 6.078125 C 26.429688 7.199219 27.148438 8.042969 27.1875 8.214844 C 27.210938 8.316406 27.304688 8.550781 27.402344 8.738281 C 27.664062 9.257812 27.929688 9.980469 27.960938 10.273438 C 27.976562 10.417969 28.050781 10.722656 28.121094 10.949219 C 28.441406 11.957031 28.472656 12.160156 28.472656 13.269531 C 28.472656 14.417969 28.367188 14.964844 27.910156 16.1875 C 27.855469 16.324219 27.8125 16.699219 27.808594 17.019531 C 27.800781 17.472656 27.769531 17.621094 27.664062 17.683594 C 27.585938 17.726562 27.472656 17.882812 27.40625 18.035156 C 27.285156 18.324219 27.160156 18.613281 27.035156 18.898438 C 26.65625 19.78125 26.480469 20.285156 26.359375 20.832031 C 26.253906 21.289062 26.257812 21.347656 26.425781 21.699219 C 26.523438 21.90625 26.652344 22.074219 26.714844 22.074219 C 26.875 22.074219 27.015625 21.902344 26.964844 21.769531 C 26.90625 21.609375 27.0625 21.621094 27.222656 21.785156 C 27.542969 22.113281 27.445312 22.667969 27 23.054688 C 26.792969 23.230469 26.6875 23.261719 26.394531 23.230469 C 26.199219 23.207031 25.972656 23.152344 25.886719 23.109375 C 25.804688 23.066406 25.601562 23.003906 25.441406 22.972656 C 25.066406 22.90625 24.421875 22.492188 24.238281 22.203125 C 24.148438 22.066406 24.078125 21.726562 24.046875 21.289062 C 23.996094 20.601562 23.992188 20.59375 23.761719 20.566406 C 23.320312 20.515625 23.207031 20.726562 23.207031 21.628906 C 23.207031 22.066406 23.246094 22.5 23.292969 22.589844 C 23.390625 22.769531 23.628906 22.800781 23.882812 22.664062 C 24.28125 22.445312 24.441406 23.136719 24.101562 23.609375 C 23.773438 24.066406 23.265625 24.222656 22.757812 24.023438 C 22.476562 23.917969 22.378906 24.035156 22.003906 24.914062 C 21.542969 26 21.628906 26.746094 22.199219 26.589844 C 22.367188 26.546875 22.371094 26.5625 22.289062 26.808594 C 22.144531 27.234375 21.769531 27.496094 21.316406 27.492188 C 21.105469 27.488281 20.835938 27.433594 20.722656 27.367188 C 20.609375 27.300781 20.488281 27.246094 20.453125 27.242188 C 20.417969 27.242188 20.171875 27.441406 19.902344 27.683594 C 19.386719 28.15625 18.582031 28.695312 18.238281 28.804688 C 18.121094 28.839844 17.992188 28.898438 17.945312 28.933594 C 17.828125 29.027344 16.871094 29.390625 16.289062 29.5625 C 16.015625 29.640625 15.679688 29.746094 15.542969 29.792969 C 15.40625 29.839844 14.679688 29.894531 13.925781 29.914062 C 12.777344 29.941406 12.46875 29.921875 11.980469 29.789062 Z M 15.480469 29.453125 C 15.742188 29.367188 16.121094 29.269531 16.316406 29.238281 C 16.671875 29.183594 17.25 28.960938 18.152344 28.53125 C 18.953125 28.148438 19.707031 27.578125 19.414062 27.578125 C 19.355469 27.578125 18.625 27.886719 17.699219 28.300781 C 17.40625 28.429688 16.976562 28.511719 15.917969 28.640625 C 15.757812 28.660156 15.363281 28.71875 15.046875 28.769531 C 14.328125 28.890625 12.863281 28.828125 12.3125 28.65625 C 11.761719 28.484375 10.628906 27.777344 10.027344 27.230469 C 9.667969 26.902344 9.460938 26.617188 9.210938 26.105469 C 8.734375 25.125 8.601562 24.511719 8.589844 23.261719 C 8.582031 22.320312 8.605469 22.148438 8.78125 21.738281 C 9.105469 20.96875 9.507812 20.394531 9.90625 20.136719 C 10.382812 19.828125 11.324219 19.59375 12.070312 19.597656 C 12.867188 19.601562 13.308594 19.808594 13.761719 20.394531 C 14.175781 20.832031 14.105469 20.957031 14.074219 21.542969 C 14.046875 22.078125 14.003906 22.28125 13.878906 22.421875 C 13.621094 22.714844 13.300781 22.835938 12.808594 22.835938 C 12.101562 22.835938 11.730469 22.585938 11.515625 21.96875 C 11.398438 21.625 11.320312 21.574219 11.242188 21.785156 C 10.960938 22.535156 11.714844 23.179688 12.878906 23.175781 C 14.53125 23.167969 15.347656 21.816406 14.617188 20.296875 C 14.101562 19.234375 13.203125 18.617188 12.058594 18.539062 C 11.574219 18.503906 11.34375 18.539062 10.757812 18.730469 C 9.917969 19.003906 9.539062 19.246094 8.820312 19.960938 C 8.214844 20.566406 8.050781 20.8125 7.78125 21.523438 C 7.605469 21.988281 7.589844 22.160156 7.59375 23.515625 C 7.59375 24.828125 7.617188 25.050781 7.777344 25.484375 C 8.257812 26.777344 8.695312 27.433594 9.519531 28.097656 C 10.3125 28.738281 10.675781 28.957031 11.40625 29.238281 C 12.636719 29.707031 14.4375 29.804688 15.480469 29.453125 Z M 14.257812 28.558594 C 14.257812 28.40625 13.941406 28.171875 13.734375 28.171875 C 13.722656 28.171875 13.710938 28.171875 13.703125 28.171875 C 13.574219 28.15625 13.21875 28.082031 12.863281 27.996094 C 11.765625 27.726562 11.046875 27.21875 10.402344 26.257812 C 9.535156 24.972656 9.25 23.867188 9.449219 22.609375 C 9.570312 21.859375 9.648438 21.703125 10.230469 21.074219 C 10.796875 20.460938 11.355469 20.25 12.304688 20.285156 C 12.964844 20.308594 13.511719 20.867188 13.511719 21.515625 C 13.511719 21.8125 13.152344 22.074219 12.75 22.074219 C 12.238281 22.074219 12.105469 21.960938 12.105469 21.53125 C 12.105469 21.28125 12.0625 21.144531 11.980469 21.113281 C 11.878906 21.074219 11.855469 21.148438 11.855469 21.507812 C 11.859375 22.128906 11.925781 22.316406 12.195312 22.460938 C 12.460938 22.601562 13.070312 22.621094 13.378906 22.503906 C 13.867188 22.3125 14.007812 21.316406 13.636719 20.671875 C 13.328125 20.132812 12.75 19.867188 11.890625 19.867188 C 10.578125 19.867188 9.789062 20.347656 9.226562 21.484375 L 8.914062 22.117188 L 8.917969 23.597656 L 8.921875 25.082031 L 9.214844 25.714844 C 9.699219 26.753906 10.332031 27.375 11.632812 28.085938 C 12.339844 28.472656 13.039062 28.664062 13.78125 28.671875 C 14.144531 28.679688 14.257812 28.652344 14.257812 28.558594 Z M 16.785156 28.207031 C 17.058594 28.132812 17.433594 28.042969 17.613281 28.007812 C 17.796875 27.96875 18.113281 27.875 18.320312 27.796875 C 18.75 27.636719 19.945312 26.855469 20.003906 26.699219 C 20.070312 26.519531 19.964844 26.140625 19.847656 26.140625 C 19.664062 26.140625 19.292969 26.332031 18.90625 26.632812 C 18.460938 26.976562 17.769531 27.335938 17.164062 27.539062 C 16.480469 27.765625 14.875 27.746094 14.148438 27.5 C 13.082031 27.136719 12.414062 26.382812 12.316406 25.429688 C 12.273438 25.023438 12.289062 24.824219 12.378906 24.644531 C 12.546875 24.316406 12.917969 24.054688 13.3125 23.988281 C 13.585938 23.9375 13.695312 23.964844 13.957031 24.148438 C 14.300781 24.386719 14.476562 24.367188 14.339844 24.105469 C 14.207031 23.847656 13.574219 23.515625 13.226562 23.515625 C 12.84375 23.515625 12.1875 23.863281 11.949219 24.195312 C 11.851562 24.328125 11.714844 24.609375 11.644531 24.820312 C 11.53125 25.167969 11.53125 25.253906 11.652344 25.734375 C 11.796875 26.3125 12.234375 26.984375 12.722656 27.386719 C 12.882812 27.515625 13.414062 27.800781 13.90625 28.023438 C 14.796875 28.421875 14.796875 28.421875 15.542969 28.378906 C 15.953125 28.359375 16.511719 28.28125 16.785156 28.207031 Z M 12.519531 27.589844 C 12.519531 27.546875 12.351562 27.375 12.144531 27.203125 C 11.332031 26.519531 11.066406 25.214844 11.523438 24.140625 C 11.605469 23.949219 11.710938 23.765625 11.761719 23.734375 C 11.917969 23.636719 11.867188 23.527344 11.605469 23.386719 C 11.46875 23.3125 11.242188 23.097656 11.109375 22.90625 C 10.894531 22.605469 10.859375 22.484375 10.859375 22.015625 C 10.859375 21.660156 10.90625 21.40625 10.996094 21.265625 C 11.070312 21.148438 11.109375 21.03125 11.085938 21.003906 C 11.019531 20.941406 10.730469 21.15625 10.269531 21.613281 C 9.953125 21.925781 9.863281 22.085938 9.753906 22.539062 C 9.582031 23.230469 9.589844 23.667969 9.777344 24.363281 C 10.164062 25.769531 10.824219 26.753906 11.761719 27.324219 C 12.3125 27.65625 12.519531 27.730469 12.519531 27.589844 Z M 16.652344 27.390625 C 17.214844 27.285156 18.15625 26.847656 18.21875 26.664062 C 18.269531 26.503906 17.675781 26.539062 17.152344 26.726562 C 15.972656 27.152344 13.796875 26.800781 13.1875 26.089844 C 12.914062 25.773438 12.871094 25.5 13.023438 25.050781 C 13.183594 24.585938 13.699219 24.578125 13.855469 25.039062 C 13.949219 25.3125 14.128906 25.375 14.207031 25.160156 C 14.277344 24.976562 14.058594 24.476562 13.855469 24.367188 C 13.449219 24.144531 12.957031 24.328125 12.726562 24.785156 C 12.308594 25.609375 13.035156 26.839844 14.148438 27.199219 C 15.015625 27.476562 15.851562 27.542969 16.652344 27.390625 Z M 21.777344 27.140625 C 21.921875 27.019531 21.910156 26.816406 21.761719 26.816406 C 21.304688 26.816406 21.46875 25.476562 22.082031 24.214844 C 22.226562 23.914062 22.238281 23.828125 22.152344 23.707031 C 21.828125 23.246094 21.707031 23.023438 21.664062 22.816406 C 21.609375 22.566406 21.386719 22.492188 21.386719 22.722656 C 21.386719 22.796875 21.242188 23.148438 21.0625 23.503906 C 20.648438 24.335938 20.277344 25.714844 20.332031 26.214844 C 20.382812 26.65625 20.59375 26.976562 20.976562 27.179688 C 21.261719 27.328125 21.570312 27.316406 21.777344 27.140625 Z M 16.453125 26.53125 C 16.453125 26.492188 16.25 26.378906 16 26.277344 C 15.523438 26.089844 15.167969 25.878906 14.867188 25.609375 C 14.726562 25.480469 14.65625 25.464844 14.519531 25.539062 C 14.429688 25.589844 14.199219 25.632812 14.015625 25.632812 C 13.734375 25.632812 13.660156 25.59375 13.582031 25.421875 C 13.453125 25.136719 13.347656 25.152344 13.347656 25.457031 C 13.347656 25.984375 13.878906 26.34375 14.964844 26.550781 C 15.460938 26.648438 16.453125 26.636719 16.453125 26.53125 Z M 19.105469 26.09375 C 19.535156 25.960938 19.777344 25.730469 20.0625 25.191406 C 20.285156 24.765625 20.273438 24.617188 20.015625 24.617188 C 19.875 24.617188 19.785156 24.679688 19.734375 24.804688 C 19.691406 24.925781 19.449219 25.105469 19.097656 25.285156 C 18.613281 25.53125 18.425781 25.578125 17.785156 25.609375 C 17.160156 25.644531 16.957031 25.621094 16.566406 25.46875 C 15.628906 25.105469 15.300781 24.621094 15.296875 23.597656 C 15.292969 22.78125 15.460938 22.46875 16.085938 22.132812 C 16.476562 21.921875 16.597656 21.894531 17 21.9375 C 17.253906 21.964844 17.523438 22.007812 17.601562 22.039062 C 17.925781 22.167969 17.660156 21.667969 17.246094 21.375 C 16.976562 21.183594 16.683594 21.191406 16.125 21.40625 C 15.5 21.644531 15.191406 21.933594 14.910156 22.539062 C 14.710938 22.972656 14.671875 23.15625 14.671875 23.742188 C 14.671875 24.554688 14.746094 24.761719 15.238281 25.335938 C 15.527344 25.671875 15.71875 25.804688 16.195312 25.988281 C 16.707031 26.1875 16.910156 26.214844 17.738281 26.21875 C 18.359375 26.222656 18.835938 26.179688 19.105469 26.09375 Z M 18.785156 25.035156 C 19.113281 24.824219 19.113281 24.738281 18.78125 24.867188 C 18.65625 24.914062 18.203125 24.953125 17.773438 24.953125 C 16.847656 24.953125 16.460938 24.800781 16.125 24.300781 C 15.898438 23.957031 15.871094 23.726562 16.003906 23.242188 C 16.125 22.800781 16.425781 22.582031 16.925781 22.582031 C 17.292969 22.582031 17.347656 22.609375 17.472656 22.835938 C 17.644531 23.144531 17.820312 23.167969 17.820312 22.882812 C 17.820312 22.613281 17.539062 22.351562 17.136719 22.238281 C 16.777344 22.140625 16.585938 22.183594 16.144531 22.46875 C 15.761719 22.714844 15.5625 23.101562 15.570312 23.574219 C 15.582031 24.0625 15.773438 24.453125 16.207031 24.859375 C 16.554688 25.1875 16.628906 25.214844 17.492188 25.316406 C 17.863281 25.355469 18.484375 25.222656 18.785156 25.035156 Z M 18.414062 24.601562 C 18.800781 24.484375 18.816406 24.371094 18.480469 24.117188 C 18.242188 23.9375 18.199219 23.933594 17.820312 24.03125 C 17.351562 24.15625 16.871094 24.050781 16.625 23.773438 C 16.492188 23.625 16.488281 23.570312 16.578125 23.34375 C 16.636719 23.203125 16.78125 23.03125 16.902344 22.964844 L 17.117188 22.84375 L 16.90625 22.839844 C 16.464844 22.832031 16.128906 23.527344 16.320312 24.039062 C 16.523438 24.578125 17.570312 24.859375 18.414062 24.601562 Z M 20.230469 24.132812 C 20.539062 23.945312 20.640625 23.667969 20.609375 23.070312 C 20.578125 22.476562 20.523438 22.40625 20.359375 22.738281 C 19.976562 23.492188 19.066406 23.558594 19.066406 22.832031 C 19.066406 22.515625 18.886719 22.507812 18.65625 22.804688 C 18.441406 23.085938 18.4375 23.519531 18.640625 23.777344 C 18.796875 23.976562 19.441406 24.246094 19.796875 24.265625 C 19.90625 24.273438 20.097656 24.210938 20.230469 24.132812 Z M 4.367188 23.886719 C 4.773438 23.6875 4.9375 23.429688 5.105469 22.734375 C 5.234375 22.191406 5.242188 22.023438 5.152344 21.230469 C 5.097656 20.742188 5.015625 20.148438 4.964844 19.914062 C 4.875 19.46875 4.433594 18.070312 4.300781 17.816406 C 4.191406 17.609375 4.066406 17.71875 4.066406 18.019531 C 4.066406 18.15625 3.992188 18.417969 3.902344 18.597656 C 3.742188 18.921875 3.742188 18.9375 3.890625 19.546875 C 4.21875 20.878906 4.324219 21.410156 4.371094 21.980469 C 4.414062 22.492188 4.394531 22.609375 4.234375 22.871094 C 3.996094 23.265625 3.765625 23.328125 3.15625 23.167969 C 2.941406 23.109375 2.96875 23.476562 3.199219 23.757812 C 3.375 23.972656 3.480469 24.023438 3.75 24.023438 C 3.933594 24.023438 4.210938 23.960938 4.367188 23.886719 Z M 23.570312 23.675781 C 23.691406 23.578125 23.847656 23.390625 23.917969 23.253906 C 24.03125 23.03125 24.027344 23.007812 23.910156 23.007812 C 23.835938 23.007812 23.707031 23.046875 23.617188 23.09375 C 23.394531 23.21875 23.140625 23.058594 22.996094 22.710938 C 22.90625 22.488281 22.894531 22.230469 22.949219 21.511719 C 22.988281 21.007812 23.007812 20.554688 22.988281 20.507812 C 22.972656 20.460938 22.828125 20.335938 22.667969 20.230469 L 22.378906 20.039062 L 22.296875 20.257812 C 22.25 20.378906 22.214844 20.550781 22.214844 20.644531 C 22.214844 20.734375 22.136719 21.046875 22.039062 21.335938 C 21.828125 21.972656 21.863281 22.46875 22.160156 23.0625 C 22.453125 23.652344 22.664062 23.816406 23.175781 23.84375 C 23.273438 23.847656 23.453125 23.773438 23.570312 23.675781 Z M 5.648438 23.410156 C 5.71875 23.351562 5.882812 23.152344 6.019531 22.964844 C 6.230469 22.667969 6.265625 22.542969 6.289062 21.949219 C 6.324219 21.066406 6.074219 19.832031 5.648438 18.773438 C 5.472656 18.332031 5.183594 17.578125 5.007812 17.101562 C 4.832031 16.625 4.660156 16.234375 4.628906 16.234375 C 4.566406 16.234375 4.515625 16.394531 4.445312 16.832031 C 4.40625 17.0625 4.453125 17.269531 4.632812 17.679688 C 5.324219 19.253906 5.707031 21.683594 5.445312 22.839844 C 5.292969 23.503906 5.351562 23.664062 5.648438 23.410156 Z M 26.964844 22.765625 C 27.03125 22.6875 27.109375 22.539062 27.140625 22.433594 C 27.203125 22.222656 27.109375 22.191406 26.84375 22.335938 C 26.414062 22.570312 26.054688 21.867188 26.152344 20.988281 C 26.230469 20.289062 26.988281 18.144531 27.289062 17.777344 C 27.355469 17.691406 27.335938 17.609375 27.199219 17.433594 C 27.101562 17.308594 26.976562 17.121094 26.921875 17.015625 C 26.816406 16.800781 26.6875 16.765625 26.6875 16.949219 C 26.6875 17.015625 26.507812 17.445312 26.28125 17.902344 C 25.867188 18.746094 25.511719 19.804688 25.363281 20.625 C 25.128906 21.925781 25.429688 22.671875 26.277344 22.898438 C 26.617188 22.992188 26.800781 22.957031 26.964844 22.765625 Z M 7.109375 22.042969 C 7.214844 21.734375 7.253906 21.386719 7.246094 20.847656 C 7.234375 20.179688 7.183594 19.9375 6.839844 18.898438 C 6.625 18.246094 6.382812 17.582031 6.304688 17.417969 C 6.222656 17.253906 6 16.722656 5.8125 16.234375 C 5.621094 15.742188 5.394531 15.273438 5.3125 15.183594 C 5.164062 15.03125 5.15625 15.03125 5.0625 15.214844 C 4.929688 15.46875 4.992188 16.003906 5.226562 16.570312 C 5.328125 16.828125 5.445312 17.113281 5.484375 17.207031 C 5.824219 18.046875 6.3125 19.421875 6.417969 19.84375 C 6.59375 20.53125 6.710938 21.753906 6.65625 22.328125 L 6.613281 22.796875 L 6.785156 22.636719 C 6.882812 22.550781 7.027344 22.285156 7.109375 22.042969 Z M 20.035156 22.277344 C 19.957031 22.195312 19.71875 22.417969 19.78125 22.515625 C 19.808594 22.566406 19.882812 22.546875 19.960938 22.464844 C 20.03125 22.394531 20.066406 22.308594 20.035156 22.277344 Z M 21.339844 22.054688 C 21.757812 21.125 21.875 20.734375 21.929688 20.101562 L 21.988281 19.449219 L 21.78125 19.449219 C 21.664062 19.449219 21.527344 19.394531 21.46875 19.324219 C 21.292969 19.109375 21.21875 19.269531 21.21875 19.859375 C 21.21875 20.289062 21.160156 20.570312 20.976562 21.03125 C 20.742188 21.621094 20.738281 21.644531 20.859375 22.066406 C 20.929688 22.304688 21.019531 22.5 21.0625 22.5 C 21.105469 22.5 21.230469 22.296875 21.339844 22.054688 Z M 24.984375 21.882812 C 24.898438 20.738281 25.195312 19.308594 25.773438 18.054688 C 25.859375 17.867188 26.085938 17.335938 26.277344 16.875 C 26.585938 16.125 26.609375 16.015625 26.511719 15.832031 C 26.402344 15.617188 25.960938 15.253906 25.898438 15.320312 C 25.878906 15.339844 25.800781 15.621094 25.730469 15.941406 C 25.660156 16.265625 25.484375 16.832031 25.34375 17.207031 C 24.878906 18.421875 24.773438 18.722656 24.566406 19.367188 C 24.351562 20.042969 24.226562 21.183594 24.316406 21.667969 C 24.367188 21.941406 24.796875 22.5 24.957031 22.5 C 24.996094 22.5 25.007812 22.222656 24.984375 21.882812 Z M 19.78125 21.914062 C 20.359375 21.644531 20.59375 21.214844 20.8125 20.027344 C 20.894531 19.589844 20.894531 19.308594 20.820312 18.773438 C 20.710938 17.976562 20.6875 17.925781 20.464844 17.925781 C 20.371094 17.925781 20.226562 17.886719 20.140625 17.839844 C 19.984375 17.753906 19.984375 17.792969 20.03125 19.101562 C 20.082031 20.394531 20.078125 20.457031 19.898438 20.753906 C 19.589844 21.265625 19.183594 21.371094 18.777344 21.046875 C 18.574219 20.882812 18.554688 20.824219 18.597656 20.503906 C 18.640625 20.1875 18.625 20.140625 18.46875 20.097656 C 18.242188 20.039062 18.042969 20.148438 17.828125 20.457031 C 17.554688 20.851562 17.644531 21.289062 18.082031 21.710938 C 18.492188 22.101562 19.195312 22.183594 19.78125 21.914062 Z M 13.019531 21.648438 C 13.109375 21.601562 13.179688 21.492188 13.179688 21.40625 C 13.179688 21.222656 12.578125 20.636719 12.394531 20.636719 C 12.222656 20.636719 12.238281 20.679688 12.476562 20.925781 C 12.691406 21.140625 12.75 21.429688 12.601562 21.527344 C 12.488281 21.597656 12.578125 21.738281 12.734375 21.738281 C 12.804688 21.738281 12.933594 21.695312 13.019531 21.648438 Z M 16.132812 21.117188 C 16.476562 21 16.828125 20.933594 17.003906 20.953125 C 17.292969 20.988281 17.300781 20.980469 17.40625 20.605469 C 17.460938 20.394531 17.582031 20.15625 17.667969 20.078125 C 17.777344 19.972656 17.820312 19.816406 17.820312 19.519531 C 17.820312 19.136719 17.800781 19.09375 17.53125 18.929688 C 17.066406 18.652344 17.007812 18.054688 17.445312 18.054688 C 17.574219 18.054688 17.699219 18.007812 17.71875 17.949219 C 17.738281 17.890625 17.523438 17.613281 17.242188 17.328125 L 16.734375 16.808594 L 16.410156 17.027344 C 16.230469 17.148438 16.050781 17.25 16.011719 17.25 C 15.96875 17.25 15.890625 17.304688 15.839844 17.371094 C 15.757812 17.464844 15.773438 17.511719 15.914062 17.585938 C 16.152344 17.714844 16.089844 17.863281 15.746094 17.980469 C 15.484375 18.066406 15.457031 18.105469 15.433594 18.445312 C 15.402344 18.859375 15.265625 19.0625 14.921875 19.183594 C 14.75 19.246094 14.648438 19.238281 14.539062 19.160156 C 14.402344 19.054688 14.40625 19.042969 14.574219 18.949219 C 14.796875 18.828125 14.804688 18.683594 14.601562 18.425781 C 14.457031 18.246094 14.421875 18.238281 14.113281 18.332031 C 13.84375 18.417969 13.71875 18.410156 13.429688 18.308594 C 13.035156 18.164062 12.929688 18.152344 12.9375 18.242188 C 12.9375 18.277344 13.125 18.398438 13.351562 18.511719 C 13.582031 18.625 13.890625 18.839844 14.039062 18.988281 C 14.394531 19.34375 14.988281 20.355469 15.136719 20.863281 C 15.324219 21.511719 15.324219 21.511719 15.445312 21.410156 C 15.503906 21.359375 15.8125 21.226562 16.132812 21.117188 Z M 19.433594 20.835938 C 19.734375 20.71875 19.960938 19.726562 19.726562 19.574219 C 19.679688 19.546875 19.507812 19.652344 19.34375 19.8125 C 19.089844 20.066406 19.0625 20.132812 19.140625 20.285156 C 19.21875 20.433594 19.207031 20.488281 19.070312 20.605469 C 18.980469 20.6875 18.925781 20.78125 18.949219 20.820312 C 19 20.902344 19.246094 20.910156 19.433594 20.835938 Z M 7.792969 20.480469 C 7.792969 20.367188 8.027344 20.128906 8.796875 19.445312 C 9.394531 18.917969 9.617188 18.777344 10.164062 18.589844 C 10.527344 18.464844 10.953125 18.339844 11.113281 18.3125 C 11.273438 18.285156 11.488281 18.203125 11.589844 18.132812 L 11.777344 18 L 11.554688 17.761719 C 11.3125 17.496094 11.105469 17.5 10.800781 17.78125 C 10.691406 17.882812 10.457031 17.964844 10.207031 17.992188 C 9.8125 18.03125 9.785156 18.019531 9.417969 17.640625 C 9.210938 17.429688 9.039062 17.195312 9.039062 17.121094 C 9.039062 17.003906 9.40625 16.332031 9.527344 16.234375 C 9.558594 16.210938 9.644531 16.085938 9.726562 15.957031 C 9.898438 15.679688 9.976562 15.671875 10.425781 15.894531 C 10.800781 16.078125 11.238281 16.125 11.144531 15.96875 C 11.113281 15.917969 10.960938 15.824219 10.808594 15.757812 C 10.269531 15.527344 9.40625 14.902344 9.203125 14.59375 C 9.089844 14.425781 8.933594 14.285156 8.855469 14.285156 C 8.648438 14.285156 8.457031 14.617188 8.457031 14.984375 C 8.457031 15.160156 8.363281 15.496094 8.25 15.722656 C 8.117188 15.996094 8.042969 16.285156 8.042969 16.546875 C 8.042969 16.769531 7.988281 17.046875 7.921875 17.164062 C 7.699219 17.558594 7.6875 17.609375 7.78125 17.765625 C 7.925781 18.003906 7.90625 19.640625 7.753906 20.015625 C 7.609375 20.367188 7.59375 20.550781 7.710938 20.550781 C 7.757812 20.550781 7.792969 20.519531 7.792969 20.480469 Z M 23.230469 19.132812 C 23.207031 18.585938 23.148438 18.085938 23.101562 18.027344 C 23.023438 17.925781 22.441406 17.585938 22.351562 17.585938 C 22.332031 17.585938 22.289062 17.855469 22.253906 18.183594 C 22.203125 18.722656 22.21875 18.820312 22.417969 19.238281 C 22.617188 19.652344 23.035156 20.128906 23.203125 20.128906 C 23.242188 20.128906 23.25 19.679688 23.230469 19.132812 Z M 19.0625 19.652344 C 19.558594 19.226562 19.6875 18.609375 19.441406 17.847656 C 19.296875 17.402344 19.265625 17.371094 19.074219 17.496094 C 18.984375 17.554688 18.980469 17.667969 19.054688 18.117188 C 19.171875 18.789062 19.105469 19.148438 18.839844 19.367188 C 18.632812 19.53125 18.410156 19.496094 18.277344 19.28125 C 18.191406 19.140625 18.070312 19.1875 18.070312 19.355469 C 18.070312 19.515625 18.511719 19.871094 18.707031 19.871094 C 18.761719 19.871094 18.921875 19.773438 19.0625 19.652344 Z M 24.320312 19.109375 C 24.398438 18.785156 24.566406 18.277344 24.691406 17.988281 C 24.816406 17.699219 25.023438 17.117188 25.148438 16.699219 C 25.273438 16.277344 25.429688 15.765625 25.492188 15.554688 C 25.558594 15.34375 25.636719 14.996094 25.664062 14.777344 C 25.710938 14.417969 25.695312 14.359375 25.484375 14.164062 C 25.359375 14.042969 25.226562 13.945312 25.191406 13.945312 C 25.105469 13.945312 25.039062 14.328125 25.046875 14.75 C 25.058594 15.324219 24.949219 15.734375 24.527344 16.640625 C 24.308594 17.117188 24.046875 17.796875 23.953125 18.144531 C 23.800781 18.695312 23.789062 18.839844 23.871094 19.242188 C 24.003906 19.878906 24.148438 19.835938 24.320312 19.109375 Z M 7.589844 19.003906 C 7.652344 18.492188 7.488281 17.789062 7.164062 17.164062 C 6.824219 16.515625 6.148438 14.984375 6.046875 14.625 C 5.9375 14.261719 5.691406 14.15625 5.605469 14.4375 C 5.550781 14.609375 5.886719 15.59375 6.347656 16.613281 C 6.515625 16.984375 6.726562 17.539062 6.816406 17.839844 C 6.90625 18.144531 7.050781 18.546875 7.136719 18.734375 C 7.226562 18.925781 7.296875 19.136719 7.296875 19.207031 C 7.296875 19.347656 7.371094 19.449219 7.472656 19.449219 C 7.507812 19.449219 7.558594 19.25 7.589844 19.003906 Z M 18.796875 18.957031 C 18.910156 18.882812 18.851562 18.601562 18.726562 18.601562 C 18.628906 18.601562 18.480469 18.90625 18.542969 18.972656 C 18.613281 19.042969 18.667969 19.039062 18.796875 18.957031 Z M 21.84375 18.792969 C 21.875 18.710938 21.921875 18.300781 21.945312 17.882812 L 21.988281 17.117188 L 21.554688 16.84375 C 21.035156 16.515625 20.988281 16.511719 20.921875 16.789062 C 20.832031 17.15625 20.953125 17.726562 21.261719 18.347656 C 21.550781 18.941406 21.730469 19.074219 21.84375 18.792969 Z M 3.640625 18.355469 C 3.738281 18.125 3.820312 17.789062 3.828125 17.613281 C 3.835938 17.292969 3.429688 16.035156 3.203125 15.679688 C 3.136719 15.578125 3.003906 15.222656 2.902344 14.890625 C 2.792969 14.515625 2.679688 14.285156 2.605469 14.285156 C 2.542969 14.285156 2.492188 14.320312 2.492188 14.367188 C 2.492188 14.410156 2.394531 14.550781 2.277344 14.679688 C 2.101562 14.875 2.070312 14.976562 2.101562 15.257812 C 2.152344 15.695312 2.46875 16.589844 2.898438 17.515625 C 3.082031 17.917969 3.238281 18.339844 3.238281 18.453125 C 3.238281 18.660156 3.296875 18.773438 3.40625 18.773438 C 3.4375 18.773438 3.542969 18.585938 3.640625 18.355469 Z M 18.28125 18.566406 C 18.6875 18.148438 18.464844 17.3125 17.761719 16.613281 C 17.449219 16.304688 17.421875 16.179688 17.65625 16.105469 C 17.871094 16.035156 17.871094 15.808594 17.65625 15.808594 C 17.546875 15.808594 17.492188 15.753906 17.492188 15.644531 C 17.492188 15.359375 17.308594 15.347656 17.085938 15.621094 C 16.964844 15.765625 16.496094 16.175781 16.039062 16.535156 C 15.730469 16.777344 15.425781 17.019531 15.117188 17.261719 C 15.066406 17.304688 14.804688 17.375 14.542969 17.417969 C 14.164062 17.480469 14.03125 17.472656 13.933594 17.382812 C 13.855469 17.3125 13.699219 17.285156 13.535156 17.308594 C 13.316406 17.34375 13.222656 17.304688 13.007812 17.085938 C 12.769531 16.839844 12.734375 16.828125 12.570312 16.941406 C 12.082031 17.289062 11.910156 17.480469 11.96875 17.625 C 12.019531 17.761719 12.042969 17.757812 12.242188 17.554688 C 12.597656 17.191406 12.835938 17.175781 13.09375 17.496094 C 13.363281 17.832031 14.023438 18.007812 14.226562 17.800781 C 14.347656 17.675781 14.589844 17.710938 14.589844 17.855469 C 14.589844 17.96875 14.980469 18.347656 15.09375 18.347656 C 15.160156 18.347656 15.171875 18.261719 15.140625 18.085938 C 15.078125 17.773438 15.328125 17.417969 15.917969 16.984375 C 16.121094 16.835938 16.390625 16.601562 16.515625 16.464844 C 16.796875 16.15625 17.082031 16.175781 17.167969 16.507812 C 17.199219 16.636719 17.398438 16.9375 17.609375 17.175781 C 18.070312 17.699219 18.117188 18.0625 17.769531 18.394531 L 17.550781 18.601562 L 17.75 18.679688 C 18.035156 18.796875 18.058594 18.792969 18.28125 18.566406 Z M 23.292969 17.335938 C 23.292969 16.867188 22.972656 16.183594 22.585938 15.816406 C 22.03125 15.292969 21.914062 15.351562 22.082031 16.078125 C 22.214844 16.671875 22.457031 17.070312 22.851562 17.359375 C 23.246094 17.648438 23.292969 17.644531 23.292969 17.335938 Z M 9.867188 17.308594 C 9.867188 17.058594 10.082031 16.75 10.324219 16.65625 C 10.496094 16.585938 10.507812 16.558594 10.421875 16.363281 C 10.285156 16.066406 10.136719 16.09375 9.976562 16.441406 C 9.898438 16.605469 9.769531 16.761719 9.6875 16.789062 C 9.515625 16.84375 9.5 16.96875 9.617188 17.285156 C 9.714844 17.554688 9.867188 17.570312 9.867188 17.308594 Z M 20.507812 17.144531 C 20.53125 17.039062 20.570312 16.84375 20.597656 16.710938 C 20.679688 16.320312 20.507812 15.945312 20.132812 15.695312 C 19.949219 15.570312 19.761719 15.46875 19.722656 15.46875 C 19.5 15.46875 19.742188 16.457031 20.105469 17.015625 C 20.339844 17.378906 20.453125 17.414062 20.507812 17.144531 Z M 14.507812 17.125 C 14.507812 17 13.628906 16.679688 13.539062 16.769531 C 13.445312 16.863281 13.621094 16.996094 13.992188 17.113281 C 14.496094 17.273438 14.507812 17.273438 14.507812 17.125 Z M 7.792969 16.660156 C 7.792969 16.199219 7.542969 15.140625 7.253906 14.371094 C 7.085938 13.925781 6.914062 13.4375 6.867188 13.285156 C 6.824219 13.128906 6.757812 13.015625 6.722656 13.03125 C 6.550781 13.097656 6.050781 13.882812 6.117188 13.972656 C 6.160156 14.027344 6.257812 14.265625 6.339844 14.496094 C 6.605469 15.25 7.328125 16.867188 7.488281 17.066406 C 7.5625 17.160156 7.597656 17.152344 7.6875 17.027344 C 7.746094 16.945312 7.792969 16.78125 7.792969 16.660156 Z M 18.871094 17.035156 C 18.960938 16.789062 18.539062 16.0625 18.304688 16.0625 C 18.144531 16.0625 18.25 16.597656 18.464844 16.871094 C 18.714844 17.195312 18.796875 17.226562 18.871094 17.035156 Z M 27.601562 16.921875 C 27.601562 16.789062 27.746094 16.171875 27.925781 15.546875 C 28.257812 14.367188 28.394531 13.273438 28.28125 12.640625 C 28.230469 12.347656 28.164062 12.269531 27.765625 12.03125 L 27.3125 11.757812 L 27.253906 13.042969 C 27.226562 13.75 27.160156 14.519531 27.113281 14.75 C 26.894531 15.78125 26.902344 15.984375 27.171875 16.59375 C 27.441406 17.199219 27.601562 17.320312 27.601562 16.921875 Z M 11.617188 16.980469 C 11.792969 16.925781 11.9375 16.855469 11.9375 16.820312 C 11.9375 16.789062 12.050781 16.714844 12.1875 16.65625 C 12.324219 16.597656 12.4375 16.515625 12.4375 16.472656 C 12.4375 16.320312 12.179688 16.300781 11.851562 16.4375 C 11.632812 16.527344 11.375 16.558594 11.109375 16.53125 C 10.886719 16.507812 10.683594 16.523438 10.65625 16.566406 C 10.582031 16.6875 10.691406 16.882812 10.886719 16.976562 C 11.128906 17.097656 11.238281 17.097656 11.617188 16.980469 Z M 24.394531 16.042969 C 24.683594 15.230469 24.703125 15.109375 24.703125 14.226562 C 24.699219 13.335938 24.6875 13.265625 24.484375 13.019531 C 24.367188 12.878906 24.242188 12.761719 24.207031 12.761719 C 24.171875 12.761719 24.121094 13.132812 24.09375 13.585938 C 24.0625 14.085938 23.960938 14.695312 23.832031 15.128906 C 23.71875 15.519531 23.625 15.949219 23.625 16.078125 C 23.625 16.363281 23.867188 16.910156 23.996094 16.910156 C 24.042969 16.910156 24.226562 16.519531 24.394531 16.042969 Z M 4.214844 16.160156 C 4.230469 15.792969 4.175781 15.394531 4.019531 14.8125 C 3.898438 14.359375 3.761719 13.789062 3.714844 13.542969 C 3.671875 13.300781 3.59375 13.101562 3.539062 13.101562 C 3.488281 13.105469 3.355469 13.246094 3.25 13.417969 C 3.046875 13.746094 3.042969 13.96875 3.226562 14.8125 C 3.339844 15.324219 3.996094 16.746094 4.105469 16.710938 C 4.152344 16.695312 4.199219 16.449219 4.214844 16.160156 Z M 15.234375 16.421875 C 15.265625 16.320312 14.84375 16.0625 14.636719 16.0625 C 14.410156 16.0625 14.496094 16.28125 14.777344 16.421875 C 15.070312 16.570312 15.183594 16.570312 15.234375 16.421875 Z M 13.925781 16.199219 C 13.925781 16.035156 13.761719 15.921875 13.445312 15.875 C 13.195312 15.839844 13.019531 15.925781 13.125 16.035156 C 13.175781 16.082031 13.765625 16.308594 13.863281 16.3125 C 13.898438 16.316406 13.925781 16.265625 13.925781 16.199219 Z M 21.683594 16.097656 C 21.65625 16.023438 21.632812 15.808594 21.632812 15.617188 C 21.632812 15.316406 21.585938 15.222656 21.261719 14.90625 C 20.921875 14.574219 20.636719 14.410156 20.761719 14.621094 C 20.792969 14.667969 20.847656 14.921875 20.890625 15.1875 C 20.949219 15.554688 21.03125 15.738281 21.234375 15.953125 C 21.515625 16.246094 21.773438 16.332031 21.683594 16.097656 Z M 19.214844 15.621094 C 19.238281 15.242188 19.226562 15.222656 18.886719 15.015625 C 18.519531 14.792969 18.402344 14.792969 18.402344 15.03125 C 18.402344 15.230469 18.988281 16.074219 19.097656 16.039062 C 19.148438 16.019531 19.199219 15.832031 19.214844 15.621094 Z M 23.324219 15.929688 C 23.40625 15.714844 23.390625 15.675781 23.09375 15.3125 C 22.929688 15.113281 22.769531 14.789062 22.714844 14.546875 C 22.660156 14.3125 22.554688 14.074219 22.484375 14.015625 C 22.414062 13.953125 22.210938 13.703125 22.035156 13.460938 C 21.855469 13.214844 21.65625 13.015625 21.589844 13.015625 C 21.398438 13.015625 21.441406 13.117188 21.800781 13.527344 C 21.984375 13.734375 22.273438 14.183594 22.441406 14.523438 C 22.613281 14.863281 22.835938 15.300781 22.933594 15.496094 C 23.035156 15.691406 23.117188 15.898438 23.121094 15.957031 C 23.128906 16.109375 23.265625 16.089844 23.324219 15.929688 Z M 12.519531 15.820312 C 12.519531 15.628906 11.976562 15.421875 11.882812 15.574219 C 11.855469 15.625 11.898438 15.71875 11.984375 15.78125 C 12.152344 15.90625 12.519531 15.933594 12.519531 15.820312 Z M 14.757812 15.742188 C 14.757812 15.585938 14.484375 15.300781 14.335938 15.300781 C 14.109375 15.300781 14.136719 15.425781 14.402344 15.628906 C 14.644531 15.816406 14.757812 15.851562 14.757812 15.742188 Z M 16 15.65625 C 16 15.5 15.78125 15.386719 15.484375 15.386719 C 15.148438 15.386719 15.078125 15.492188 15.316406 15.632812 C 15.488281 15.734375 16 15.753906 16 15.65625 Z M 13.6875 15.320312 C 13.59375 15.136719 13.195312 14.960938 12.878906 14.960938 C 12.476562 14.960938 12.75 15.347656 13.265625 15.507812 C 13.679688 15.636719 13.820312 15.574219 13.6875 15.320312 Z M 16.660156 15.523438 C 16.660156 15.371094 16.4375 15.277344 16.363281 15.398438 C 16.332031 15.449219 16.359375 15.523438 16.421875 15.5625 C 16.585938 15.667969 16.660156 15.65625 16.660156 15.523438 Z M 8.164062 14.761719 C 8.164062 14.226562 8.125 14.0625 7.886719 13.585938 C 7.734375 13.277344 7.632812 12.988281 7.664062 12.941406 C 7.71875 12.851562 7.554688 12.421875 7.464844 12.421875 C 7.289062 12.421875 7.132812 12.75 7.183594 13.023438 C 7.222656 13.25 7.644531 14.636719 7.925781 15.464844 C 7.957031 15.554688 7.988281 15.558594 8.066406 15.484375 C 8.121094 15.421875 8.164062 15.128906 8.164062 14.761719 Z M 11.191406 15.382812 C 11.191406 15.269531 10.792969 15.085938 10.714844 15.167969 C 10.644531 15.242188 10.925781 15.46875 11.085938 15.46875 C 11.144531 15.46875 11.191406 15.429688 11.191406 15.382812 Z M 4.800781 14.988281 C 4.910156 14.675781 4.90625 14.519531 4.765625 13.402344 C 4.660156 12.5625 4.578125 12.167969 4.507812 12.167969 C 4.453125 12.167969 4.3125 12.292969 4.199219 12.441406 C 4.003906 12.707031 4 12.746094 4.070312 13.40625 C 4.113281 13.78125 4.203125 14.226562 4.273438 14.398438 C 4.339844 14.566406 4.398438 14.832031 4.398438 14.988281 C 4.398438 15.511719 4.613281 15.511719 4.800781 14.988281 Z M 20.410156 14.953125 C 20.394531 14.664062 20.332031 14.53125 20.140625 14.347656 C 19.789062 14.019531 19.722656 14.050781 19.78125 14.519531 C 19.832031 14.925781 20.167969 15.421875 20.347656 15.355469 C 20.394531 15.339844 20.421875 15.15625 20.410156 14.953125 Z M 26.816406 14.320312 C 26.945312 13.339844 26.964844 12.257812 26.871094 11.710938 C 26.8125 11.378906 26.554688 11.105469 26.25 11.050781 C 26.109375 11.027344 26.097656 11.128906 26.105469 12.773438 C 26.113281 13.734375 26.148438 14.644531 26.191406 14.792969 C 26.285156 15.132812 26.523438 15.417969 26.625 15.316406 C 26.664062 15.273438 26.75 14.824219 26.816406 14.320312 Z M 12.210938 14.921875 C 12.070312 14.617188 11.550781 14.316406 11.410156 14.457031 C 11.277344 14.585938 11.632812 15.070312 11.9375 15.175781 C 12.324219 15.3125 12.375 15.265625 12.210938 14.921875 Z M 9.96875 14.777344 C 9.863281 14.667969 9.785156 14.640625 9.75 14.695312 C 9.71875 14.746094 9.777344 14.871094 9.878906 14.976562 C 10.011719 15.109375 10.074219 15.132812 10.097656 15.054688 C 10.117188 14.992188 10.058594 14.867188 9.96875 14.777344 Z M 17.675781 14.878906 C 17.644531 14.589844 17.5 14.464844 17.167969 14.4375 C 16.820312 14.40625 16.78125 14.503906 16.996094 14.863281 C 17.136719 15.097656 17.203125 15.136719 17.429688 15.117188 C 17.660156 15.09375 17.695312 15.058594 17.675781 14.878906 Z M 16.476562 14.949219 C 16.632812 14.789062 16.375 14.371094 16.117188 14.371094 C 15.996094 14.371094 15.929688 14.40625 15.957031 14.453125 C 15.984375 14.5 16.023438 14.621094 16.042969 14.722656 C 16.097656 15.007812 16.308594 15.117188 16.476562 14.949219 Z M 22.296875 15.007812 C 22.296875 14.832031 21.378906 13.625 21.066406 13.394531 C 20.53125 12.992188 20.078125 13.023438 20.417969 13.4375 C 20.761719 13.859375 22.050781 15.046875 22.164062 15.046875 C 22.238281 15.046875 22.296875 15.027344 22.296875 15.007812 Z M 23.613281 14.496094 C 23.957031 13.421875 23.796875 12.140625 23.285156 11.867188 C 23.15625 11.800781 23.027344 11.746094 23.003906 11.746094 C 22.898438 11.746094 23.011719 14.578125 23.125 14.8125 C 23.296875 15.175781 23.417969 15.09375 23.613281 14.496094 Z M 14.355469 14.699219 C 14.300781 14.253906 13.804688 13.867188 13.585938 14.09375 C 13.453125 14.226562 13.734375 14.769531 13.988281 14.863281 C 14.300781 14.980469 14.386719 14.941406 14.355469 14.699219 Z M 15.519531 14.710938 C 15.484375 14.378906 15.265625 14.199219 14.898438 14.199219 C 14.585938 14.199219 14.574219 14.210938 14.625 14.433594 C 14.703125 14.761719 14.980469 14.976562 15.289062 14.945312 C 15.503906 14.925781 15.539062 14.886719 15.519531 14.710938 Z M 11.058594 14.644531 C 10.976562 14.277344 10.796875 14.039062 10.507812 13.914062 C 10.152344 13.761719 10.078125 13.851562 10.238281 14.257812 C 10.324219 14.480469 10.460938 14.644531 10.636719 14.730469 C 11.035156 14.933594 11.121094 14.917969 11.058594 14.644531 Z M 13.300781 14.519531 C 13.160156 14.050781 13.007812 13.867188 12.683594 13.765625 C 12.5 13.710938 12.335938 13.683594 12.3125 13.703125 C 12.292969 13.726562 12.320312 13.890625 12.371094 14.070312 C 12.449219 14.324219 12.542969 14.425781 12.804688 14.550781 C 13.261719 14.761719 13.371094 14.753906 13.300781 14.519531 Z M 19.355469 14.433594 C 19.257812 13.941406 19.222656 13.863281 19.050781 13.769531 C 18.683594 13.570312 18.644531 14.273438 19.003906 14.558594 C 19.300781 14.792969 19.417969 14.75 19.355469 14.433594 Z M 2.394531 13.988281 C 2.507812 13.78125 2.535156 13.457031 2.542969 12.207031 C 2.546875 11.242188 2.585938 10.609375 2.644531 10.496094 C 2.699219 10.398438 2.738281 10.257812 2.738281 10.183594 C 2.738281 10.019531 2.523438 10.007812 2.464844 10.164062 C 2.441406 10.230469 2.308594 10.304688 2.171875 10.332031 C 2.03125 10.359375 1.859375 10.476562 1.785156 10.59375 C 1.597656 10.882812 1.535156 12.1875 1.664062 13.140625 C 1.71875 13.5625 1.773438 14.039062 1.785156 14.199219 C 1.800781 14.363281 1.8125 14.53125 1.820312 14.574219 C 1.832031 14.691406 2.238281 14.28125 2.394531 13.988281 Z M 18.425781 14.257812 C 18.484375 14.101562 18.402344 13.710938 18.289062 13.617188 C 18.160156 13.507812 17.882812 13.472656 17.765625 13.546875 C 17.691406 13.59375 17.6875 13.679688 17.753906 13.863281 C 17.886719 14.257812 18.328125 14.515625 18.425781 14.257812 Z M 9.824219 14.136719 C 9.792969 14.054688 9.734375 13.882812 9.695312 13.753906 C 9.617188 13.476562 9.3125 13.191406 9.09375 13.1875 C 8.976562 13.183594 8.957031 13.226562 9 13.375 C 9.074219 13.605469 9.347656 14.035156 9.523438 14.179688 C 9.714844 14.339844 9.894531 14.3125 9.824219 14.136719 Z M 11.980469 13.84375 C 11.933594 13.59375 11.859375 13.519531 11.476562 13.328125 C 11.078125 13.128906 11.027344 13.117188 11.027344 13.25 C 11.03125 13.59375 11.148438 13.789062 11.507812 14.03125 C 11.9375 14.320312 12.058594 14.273438 11.980469 13.84375 Z M 5.609375 13.363281 C 5.667969 12.953125 5.605469 11.679688 5.519531 11.59375 C 5.488281 11.5625 5.363281 11.59375 5.242188 11.667969 L 5.019531 11.796875 L 5.046875 12.933594 C 5.066406 13.5625 5.097656 14.109375 5.125 14.152344 C 5.210938 14.296875 5.554688 13.738281 5.609375 13.363281 Z M 17.34375 13.859375 C 17.332031 13.695312 17.257812 13.515625 17.183594 13.460938 C 16.996094 13.316406 16.585938 13.324219 16.527344 13.476562 C 16.433594 13.722656 16.953125 14.226562 17.242188 14.175781 C 17.328125 14.15625 17.359375 14.066406 17.34375 13.859375 Z M 16.246094 13.816406 C 16.246094 13.625 15.871094 13.269531 15.671875 13.269531 C 15.546875 13.269531 15.5 13.324219 15.5 13.46875 C 15.5 13.691406 15.617188 13.820312 15.875 13.886719 C 16.175781 13.960938 16.246094 13.949219 16.246094 13.816406 Z M 15.25 13.714844 C 15.246094 13.503906 14.921875 13.253906 14.597656 13.207031 C 14.25 13.160156 14.242188 13.164062 14.300781 13.363281 C 14.335938 13.472656 14.398438 13.613281 14.445312 13.671875 C 14.53125 13.785156 15.253906 13.820312 15.25 13.714844 Z M 25.777344 12.441406 C 25.777344 11.300781 25.757812 11.15625 25.578125 10.757812 C 25.378906 10.324219 25.175781 10.136719 24.902344 10.136719 C 24.792969 10.136719 24.777344 10.183594 24.820312 10.367188 C 24.851562 10.496094 24.914062 11 24.957031 11.492188 C 25.003906 11.980469 25.09375 12.574219 25.15625 12.8125 C 25.277344 13.242188 25.554688 13.691406 25.699219 13.691406 C 25.746094 13.691406 25.777344 13.15625 25.777344 12.441406 Z M 10.65625 13.246094 C 10.617188 13.007812 10.527344 12.824219 10.378906 12.699219 C 10.070312 12.433594 9.949219 12.457031 9.949219 12.773438 C 9.949219 12.964844 10.027344 13.113281 10.246094 13.324219 C 10.640625 13.703125 10.722656 13.6875 10.65625 13.246094 Z M 13.925781 13.519531 C 13.925781 13.179688 13.570312 12.851562 13.203125 12.847656 C 13.089844 12.84375 13.148438 13.324219 13.285156 13.5 C 13.382812 13.628906 13.925781 13.644531 13.925781 13.519531 Z M 19.976562 13.480469 C 19.976562 13.199219 19.300781 12.324219 19.179688 12.445312 C 19.121094 12.507812 19.449219 13.242188 19.628906 13.460938 C 19.78125 13.640625 19.976562 13.652344 19.976562 13.480469 Z M 22.625 12.824219 C 22.625 11.773438 22.402344 11.152344 22.035156 11.152344 C 21.863281 11.152344 21.863281 11.160156 21.960938 11.914062 C 22.050781 12.601562 22.351562 13.4375 22.511719 13.4375 C 22.601562 13.4375 22.628906 13.300781 22.625 12.824219 Z M 6.351562 12.785156 C 6.480469 12.484375 6.519531 10.8125 6.398438 10.8125 C 6.359375 10.8125 6.226562 10.910156 6.105469 11.023438 C 5.882812 11.230469 5.882812 11.25 5.894531 12.230469 C 5.902344 12.777344 5.925781 13.261719 5.953125 13.304688 C 6.007812 13.398438 6.199219 13.148438 6.351562 12.785156 Z M 12.796875 13.121094 C 12.710938 12.742188 12.621094 12.621094 12.351562 12.507812 C 12.035156 12.371094 11.941406 12.457031 12 12.832031 C 12.03125 13.050781 12.105469 13.144531 12.300781 13.230469 C 12.730469 13.421875 12.863281 13.390625 12.796875 13.121094 Z M 18.898438 13.074219 C 18.898438 12.90625 18.652344 12.589844 18.523438 12.589844 C 18.359375 12.589844 18.371094 12.839844 18.539062 13.027344 C 18.699219 13.207031 18.898438 13.234375 18.898438 13.074219 Z M 3.261719 12.777344 C 3.421875 12.371094 3.46875 12.097656 3.566406 10.984375 C 3.609375 10.492188 3.707031 9.914062 3.789062 9.695312 C 3.957031 9.234375 3.914062 9.144531 3.589844 9.277344 C 3.128906 9.476562 2.8125 10.785156 2.886719 12.214844 C 2.933594 13.1875 3.039062 13.34375 3.261719 12.777344 Z M 17.988281 12.90625 C 17.988281 12.5625 17.625 12.355469 17.519531 12.636719 C 17.464844 12.785156 17.707031 13.097656 17.875 13.097656 C 17.9375 13.097656 17.988281 13.011719 17.988281 12.90625 Z M 17.199219 12.933594 C 17.296875 12.769531 16.921875 12.507812 16.59375 12.507812 C 16.199219 12.507812 16.152344 12.554688 16.265625 12.8125 C 16.34375 12.984375 16.414062 13.015625 16.753906 13.015625 C 16.972656 13.015625 17.171875 12.976562 17.199219 12.933594 Z M 11.570312 12.542969 C 11.519531 12.257812 11.183594 11.828125 11.015625 11.828125 C 10.976562 11.828125 10.945312 12 10.945312 12.207031 C 10.945312 12.5625 10.964844 12.597656 11.253906 12.75 C 11.425781 12.839844 11.578125 12.902344 11.597656 12.882812 C 11.613281 12.867188 11.601562 12.714844 11.570312 12.542969 Z M 15.878906 12.839844 C 15.960938 12.703125 15.6875 12.445312 15.410156 12.402344 C 15.089844 12.355469 15.050781 12.433594 15.261719 12.707031 C 15.433594 12.933594 15.777344 13.007812 15.878906 12.839844 Z M 9.492188 12.316406 C 9.453125 12.105469 9.339844 11.933594 9.117188 11.753906 C 8.941406 11.609375 8.777344 11.492188 8.753906 11.492188 C 8.671875 11.492188 8.703125 12.257812 8.792969 12.425781 C 8.839844 12.515625 8.976562 12.644531 9.101562 12.710938 C 9.417969 12.882812 9.566406 12.726562 9.492188 12.316406 Z M 14.839844 12.683594 C 14.839844 12.539062 14.28125 12 14.136719 12 C 14.015625 12 14 12.046875 14.042969 12.273438 C 14.070312 12.425781 14.15625 12.597656 14.234375 12.65625 C 14.394531 12.777344 14.839844 12.796875 14.839844 12.683594 Z M 20.523438 12.65625 C 20.488281 12.574219 20.453125 12.492188 20.425781 12.410156 C 20.367188 12.25 19.996094 12.148438 19.921875 12.273438 C 19.894531 12.320312 19.980469 12.445312 20.109375 12.554688 C 20.367188 12.769531 20.601562 12.828125 20.523438 12.65625 Z M 24.699219 12.148438 C 24.699219 11.589844 24.449219 10.503906 24.238281 10.132812 C 24.074219 9.847656 23.652344 9.648438 23.515625 9.789062 C 23.472656 9.832031 23.496094 9.949219 23.566406 10.0625 C 23.695312 10.273438 23.933594 11.109375 24.035156 11.726562 C 24.089844 12.0625 24.457031 12.589844 24.632812 12.589844 C 24.671875 12.589844 24.699219 12.390625 24.699219 12.148438 Z M 13.679688 12.332031 C 13.679688 12.046875 13.515625 11.824219 13.21875 11.695312 C 12.847656 11.535156 12.851562 11.535156 12.851562 11.851562 C 12.851562 12.164062 12.90625 12.269531 13.140625 12.40625 C 13.417969 12.566406 13.679688 12.53125 13.679688 12.332031 Z M 21.664062 12.230469 C 21.542969 11.523438 21.292969 10.984375 21.085938 10.984375 C 20.9375 10.984375 20.933594 10.96875 21.21875 11.589844 C 21.355469 11.882812 21.46875 12.1875 21.46875 12.257812 C 21.46875 12.40625 21.539062 12.507812 21.644531 12.507812 C 21.683594 12.507812 21.691406 12.382812 21.664062 12.230469 Z M 7.105469 12.230469 C 7.230469 12.09375 7.292969 11.871094 7.335938 11.425781 C 7.394531 10.753906 7.347656 10.472656 7.171875 10.472656 C 6.914062 10.472656 6.800781 10.832031 6.800781 11.636719 C 6.800781 12.070312 6.832031 12.421875 6.867188 12.421875 C 6.90625 12.421875 7.015625 12.335938 7.105469 12.230469 Z M 17.867188 12.164062 C 17.945312 12.03125 17.507812 11.492188 17.320312 11.492188 C 16.980469 11.492188 17.183594 12.046875 17.574219 12.191406 C 17.765625 12.265625 17.808594 12.261719 17.867188 12.164062 Z M 10.394531 11.808594 C 10.339844 11.425781 10.164062 11.152344 9.976562 11.152344 C 9.917969 11.152344 9.867188 11.207031 9.867188 11.273438 C 9.867188 11.339844 9.84375 11.449219 9.820312 11.519531 C 9.773438 11.644531 10.222656 12.167969 10.378906 12.167969 C 10.417969 12.167969 10.425781 12.007812 10.394531 11.808594 Z M 16.804688 12.027344 C 16.875 11.832031 16.46875 11.492188 16.160156 11.492188 C 15.976562 11.492188 15.917969 11.53125 15.917969 11.648438 C 15.917969 11.898438 16.230469 12.121094 16.644531 12.15625 C 16.703125 12.164062 16.773438 12.105469 16.804688 12.027344 Z M 4.175781 11.832031 C 4.332031 11.5625 4.601562 10.558594 4.722656 9.800781 C 4.765625 9.542969 4.824219 9.265625 4.855469 9.183594 C 4.898438 9.074219 4.871094 9.035156 4.757812 9.035156 C 4.421875 9.035156 4.253906 9.265625 4.148438 9.859375 C 4.09375 10.175781 3.996094 10.621094 3.933594 10.851562 C 3.785156 11.386719 3.777344 12.082031 3.921875 12.082031 C 3.980469 12.082031 4.09375 11.972656 4.175781 11.832031 Z M 8.246094 11.246094 C 8.195312 10.933594 7.824219 10.304688 7.691406 10.304688 C 7.636719 10.304688 7.628906 10.527344 7.667969 10.917969 C 7.710938 11.390625 7.773438 11.601562 7.945312 11.828125 L 8.164062 12.121094 L 8.226562 11.828125 C 8.261719 11.664062 8.269531 11.40625 8.246094 11.246094 Z M 12.46875 11.851562 C 12.394531 11.507812 12.15625 11.199219 11.941406 11.167969 C 11.773438 11.140625 11.761719 11.164062 11.8125 11.421875 C 11.871094 11.71875 12.195312 12.082031 12.402344 12.082031 C 12.488281 12.082031 12.507812 12.023438 12.46875 11.851562 Z M 18.652344 12.015625 C 18.652344 11.921875 18.152344 11.632812 18.09375 11.695312 C 18.011719 11.777344 18.332031 12.082031 18.5 12.082031 C 18.582031 12.082031 18.652344 12.054688 18.652344 12.015625 Z M 20.757812 11.894531 C 20.5625 11.257812 20.476562 11.097656 20.285156 10.984375 C 20.050781 10.851562 19.890625 10.921875 20.019531 11.101562 C 20.066406 11.164062 20.230469 11.410156 20.390625 11.648438 C 20.695312 12.105469 20.855469 12.214844 20.757812 11.894531 Z M 15.546875 11.765625 C 15.515625 11.636719 15.449219 11.484375 15.402344 11.425781 C 15.304688 11.304688 14.839844 11.28125 14.839844 11.398438 C 14.839844 11.601562 14.96875 11.773438 15.203125 11.878906 C 15.570312 12.039062 15.609375 12.027344 15.546875 11.765625 Z M 18.980469 11.53125 C 18.785156 11.316406 18.566406 11.25 18.566406 11.40625 C 18.566406 11.503906 19.078125 11.84375 19.136719 11.785156 C 19.160156 11.761719 19.089844 11.648438 18.980469 11.53125 Z M 14.515625 11.386719 C 14.46875 11.257812 14.328125 11.132812 14.167969 11.078125 C 13.796875 10.945312 13.746094 10.957031 13.777344 11.171875 C 13.804688 11.378906 14.417969 11.785156 14.53125 11.671875 C 14.566406 11.632812 14.558594 11.507812 14.515625 11.386719 Z M 19.609375 11.261719 C 19.386719 11.066406 19.148438 11.003906 19.148438 11.144531 C 19.148438 11.183594 19.289062 11.34375 19.457031 11.496094 C 19.734375 11.746094 19.773438 11.757812 19.800781 11.617188 C 19.816406 11.519531 19.742188 11.378906 19.609375 11.261719 Z M 28.097656 11.621094 C 28.097656 11.550781 28.046875 11.332031 27.984375 11.132812 C 27.921875 10.933594 27.804688 10.503906 27.722656 10.179688 C 27.46875 9.152344 27.003906 8.34375 26.582031 8.191406 C 26.222656 8.0625 25.859375 8.078125 25.859375 8.222656 C 25.859375 8.289062 26.003906 8.660156 26.179688 9.046875 C 26.359375 9.4375 26.605469 10.007812 26.726562 10.320312 C 26.890625 10.738281 27.070312 11 27.394531 11.316406 C 27.839844 11.742188 28.097656 11.855469 28.097656 11.621094 Z M 11.441406 11.253906 C 11.441406 11.003906 11.382812 10.875 11.1875 10.683594 C 10.976562 10.476562 10.921875 10.457031 10.859375 10.5625 C 10.71875 10.789062 10.773438 11.097656 11 11.335938 C 11.3125 11.667969 11.441406 11.644531 11.441406 11.253906 Z M 23.503906 11.214844 C 23.332031 10.105469 22.917969 9.457031 22.382812 9.457031 C 22.136719 9.457031 22.136719 9.542969 22.386719 10.175781 C 22.566406 10.625 22.730469 10.863281 23.0625 11.167969 C 23.300781 11.390625 23.511719 11.574219 23.53125 11.574219 C 23.546875 11.574219 23.535156 11.414062 23.503906 11.214844 Z M 5.210938 11.054688 C 5.316406 10.933594 5.492188 10.503906 5.601562 10.09375 C 5.710938 9.6875 5.835938 9.308594 5.886719 9.25 C 6 9.109375 5.910156 9.035156 5.628906 9.035156 C 5.335938 9.035156 5.175781 9.269531 5.0625 9.882812 C 5.015625 10.136719 4.933594 10.546875 4.886719 10.789062 C 4.804688 11.207031 4.847656 11.507812 4.96875 11.351562 C 4.996094 11.3125 5.105469 11.179688 5.210938 11.054688 Z M 9.453125 11.113281 C 9.453125 10.902344 8.964844 10.214844 8.835938 10.25 C 8.707031 10.289062 8.71875 10.675781 8.855469 10.894531 C 9.015625 11.15625 9.304688 11.402344 9.390625 11.351562 C 9.425781 11.328125 9.453125 11.222656 9.453125 11.113281 Z M 13.429688 11.070312 C 13.429688 10.957031 13.316406 10.84375 13.101562 10.730469 C 12.691406 10.515625 12.667969 10.515625 12.699219 10.75 C 12.714844 10.867188 12.835938 10.996094 13.015625 11.089844 C 13.382812 11.277344 13.429688 11.273438 13.429688 11.070312 Z M 16.480469 10.835938 C 16.453125 10.601562 15.964844 10.179688 15.824219 10.269531 C 15.78125 10.292969 15.75 10.449219 15.75 10.609375 C 15.75 10.921875 15.910156 11.050781 16.316406 11.0625 C 16.476562 11.066406 16.503906 11.03125 16.480469 10.835938 Z M 15.367188 10.792969 C 15.515625 10.550781 15.269531 10.183594 14.941406 10.152344 C 14.683594 10.125 14.671875 10.136719 14.671875 10.421875 C 14.671875 10.894531 15.148438 11.148438 15.367188 10.792969 Z M 18.050781 10.910156 C 18.128906 10.863281 18.101562 10.792969 17.949219 10.644531 C 17.753906 10.457031 17.722656 10.453125 17.40625 10.558594 C 17.222656 10.621094 17.085938 10.714844 17.101562 10.765625 C 17.152344 10.921875 17.863281 11.035156 18.050781 10.910156 Z M 10.425781 10.46875 C 10.398438 10.152344 10.328125 9.976562 10.171875 9.816406 C 10.050781 9.695312 9.9375 9.609375 9.921875 9.632812 C 9.902344 9.652344 9.859375 9.832031 9.828125 10.027344 C 9.773438 10.355469 9.792969 10.414062 10.019531 10.644531 C 10.382812 11.015625 10.476562 10.976562 10.425781 10.46875 Z M 12.320312 10.695312 C 12.378906 10.539062 12.148438 10.085938 11.976562 10.019531 C 11.738281 9.925781 11.691406 9.960938 11.691406 10.214844 C 11.691406 10.382812 11.761719 10.519531 11.90625 10.636719 C 12.164062 10.84375 12.257812 10.855469 12.320312 10.695312 Z M 22.152344 10.765625 C 22.195312 10.71875 21.960938 10.105469 21.660156 9.480469 C 21.527344 9.210938 21.375 9.148438 21.101562 9.253906 C 20.90625 9.332031 20.933594 9.40625 21.382812 10.089844 C 21.808594 10.734375 22.007812 10.910156 22.152344 10.765625 Z M 14.257812 10.398438 C 14.257812 10.058594 14.175781 9.941406 13.863281 9.84375 C 13.691406 9.789062 13.679688 9.8125 13.679688 10.125 C 13.679688 10.378906 13.722656 10.496094 13.863281 10.597656 C 14.160156 10.808594 14.257812 10.761719 14.257812 10.398438 Z M 18.863281 10.332031 C 18.648438 10.144531 18.484375 10.132812 18.484375 10.3125 C 18.484375 10.355469 18.605469 10.46875 18.753906 10.558594 C 19.101562 10.773438 19.179688 10.609375 18.863281 10.332031 Z M 26.523438 10.703125 C 26.523438 10.691406 26.398438 10.375 26.242188 10 C 25.675781 8.628906 25.179688 7.824219 24.875 7.777344 C 24.628906 7.742188 24.476562 7.882812 24.59375 8.035156 C 24.640625 8.097656 24.894531 8.574219 25.15625 9.101562 C 25.628906 10.039062 26.152344 10.726562 26.398438 10.726562 C 26.46875 10.726562 26.523438 10.71875 26.523438 10.703125 Z M 6.605469 9.851562 C 6.761719 9.546875 6.699219 9.375 6.425781 9.375 C 6.257812 9.375 6.183594 9.441406 6.082031 9.691406 C 6.011719 9.867188 5.933594 10.160156 5.910156 10.347656 L 5.867188 10.6875 L 6.175781 10.390625 C 6.34375 10.226562 6.539062 9.984375 6.605469 9.851562 Z M 19.730469 10.179688 C 19.539062 9.972656 19.230469 9.886719 19.230469 10.042969 C 19.230469 10.089844 19.351562 10.21875 19.5 10.339844 C 19.839844 10.609375 20.011719 10.488281 19.730469 10.179688 Z M 21.054688 10.476562 C 21.054688 10.363281 20.5 9.484375 20.382812 9.410156 C 20.273438 9.34375 19.894531 9.535156 19.894531 9.660156 C 19.894531 9.835938 20.671875 10.558594 20.863281 10.558594 C 20.96875 10.558594 21.054688 10.523438 21.054688 10.476562 Z M 8.457031 10.097656 C 8.546875 9.859375 8.382812 9.414062 8.058594 8.992188 C 7.902344 8.789062 7.855469 8.765625 7.792969 8.867188 C 7.617188 9.148438 7.773438 9.695312 8.152344 10.113281 C 8.363281 10.351562 8.363281 10.351562 8.457031 10.097656 Z M 11.425781 9.976562 C 11.453125 9.78125 11.246094 9.375 11.117188 9.375 C 10.988281 9.375 10.96875 9.878906 11.089844 10.058594 C 11.234375 10.269531 11.390625 10.230469 11.425781 9.976562 Z M 13.265625 9.929688 C 13.265625 9.71875 13.207031 9.59375 13.046875 9.464844 C 12.726562 9.207031 12.601562 9.238281 12.601562 9.578125 C 12.601562 9.792969 12.660156 9.917969 12.820312 10.042969 C 13.140625 10.300781 13.265625 10.269531 13.265625 9.929688 Z M 17.019531 10.121094 C 17.191406 10.027344 17.191406 10.023438 17.03125 9.960938 C 16.796875 9.867188 16.414062 9.867188 16.414062 9.960938 C 16.414062 10.042969 16.648438 10.214844 16.769531 10.21875 C 16.808594 10.21875 16.917969 10.175781 17.019531 10.121094 Z M 2.671875 9.480469 C 2.972656 9.164062 3.304688 8.734375 3.402344 8.527344 C 3.832031 7.644531 5.214844 5.886719 5.578125 5.769531 C 5.703125 5.726562 5.722656 5.664062 5.679688 5.449219 C 5.589844 4.996094 5.550781 4.886719 5.464844 4.886719 C 5.289062 4.886719 4.410156 5.578125 3.765625 6.21875 C 3.21875 6.761719 3.027344 7.023438 2.75 7.609375 C 2.414062 8.3125 1.910156 9.714844 1.910156 9.941406 C 1.910156 10.171875 2.140625 10.03125 2.671875 9.480469 Z M 9.488281 9.671875 C 9.53125 9.378906 9.511719 9.230469 9.398438 9.035156 C 9.214844 8.71875 9.109375 8.746094 8.976562 9.152344 C 8.890625 9.414062 8.894531 9.507812 8.996094 9.710938 C 9.105469 9.925781 9.21875 10.023438 9.378906 10.042969 C 9.410156 10.046875 9.457031 9.878906 9.488281 9.671875 Z M 7.25 9.828125 C 7.316406 9.652344 7.273438 9.609375 7.101562 9.675781 C 7.027344 9.707031 6.964844 9.785156 6.964844 9.847656 C 6.964844 10.011719 7.1875 9.996094 7.25 9.828125 Z M 18.105469 9.890625 C 18.175781 9.777344 17.925781 9.601562 17.773438 9.660156 C 17.664062 9.703125 17.65625 9.738281 17.738281 9.839844 C 17.855469 9.980469 18.035156 10.007812 18.105469 9.890625 Z M 15.085938 9.738281 C 15.085938 9.65625 14.738281 9.289062 14.660156 9.289062 C 14.578125 9.289062 14.566406 9.660156 14.644531 9.742188 C 14.71875 9.816406 15.085938 9.8125 15.085938 9.738281 Z M 25.03125 9.738281 C 25.03125 9.644531 24.363281 8.527344 24.019531 8.042969 C 23.699219 7.59375 23.492188 7.425781 23.253906 7.425781 C 23.058594 7.425781 23.09375 7.542969 23.457031 8.070312 C 23.640625 8.335938 23.789062 8.601562 23.789062 8.65625 C 23.789062 8.832031 24.28125 9.457031 24.558594 9.628906 C 24.828125 9.796875 25.03125 9.84375 25.03125 9.738281 Z M 16.128906 9.621094 C 16.21875 9.46875 15.964844 9.28125 15.597656 9.230469 C 15.195312 9.175781 15.152344 9.28125 15.472656 9.535156 C 15.707031 9.726562 16.039062 9.769531 16.128906 9.621094 Z M 19.039062 9.496094 C 19.085938 9.347656 18.667969 9.15625 18.554688 9.269531 C 18.484375 9.34375 18.488281 9.402344 18.570312 9.5 C 18.6875 9.644531 18.992188 9.640625 19.039062 9.496094 Z M 12.1875 9.285156 C 12.1875 9.003906 12.058594 8.695312 11.945312 8.695312 C 11.808594 8.695312 11.789062 9.152344 11.914062 9.347656 C 12.085938 9.617188 12.1875 9.59375 12.1875 9.285156 Z M 14.292969 9.410156 C 14.386719 9.15625 14.339844 9.039062 14.097656 8.910156 C 13.746094 8.726562 13.597656 8.746094 13.597656 8.976562 C 13.597656 9.390625 14.164062 9.742188 14.292969 9.410156 Z M 17.535156 9.335938 C 17.773438 9.09375 17.800781 8.917969 17.59375 8.984375 C 17.515625 9.007812 17.261719 9.074219 17.035156 9.128906 C 16.542969 9.246094 16.40625 9.347656 16.578125 9.460938 C 16.824219 9.621094 17.320312 9.554688 17.535156 9.335938 Z M 10.613281 9.152344 C 10.613281 8.859375 10.351562 8.355469 10.195312 8.355469 C 10.15625 8.355469 10.097656 8.488281 10.070312 8.648438 C 10.027344 8.875 10.058594 9 10.195312 9.199219 C 10.441406 9.554688 10.613281 9.539062 10.613281 9.152344 Z M 23.667969 9.285156 C 23.699219 9.234375 23.664062 9.128906 23.59375 9.050781 C 23.523438 8.96875 23.363281 8.746094 23.234375 8.554688 C 22.742188 7.816406 22.230469 7.339844 21.929688 7.339844 C 21.722656 7.339844 21.773438 7.460938 22.152344 7.859375 C 22.347656 8.066406 22.679688 8.488281 22.894531 8.804688 C 23.273438 9.355469 23.527344 9.511719 23.667969 9.285156 Z M 7.300781 8.828125 C 7.242188 8.753906 7.160156 8.695312 7.121094 8.695312 C 7.015625 8.695312 7.03125 8.898438 7.148438 9.019531 C 7.296875 9.167969 7.433594 8.992188 7.300781 8.828125 Z M 19.871094 8.980469 C 19.914062 8.847656 19.417969 8.5 19.269531 8.558594 C 19.101562 8.625 19.117188 8.921875 19.292969 9.03125 C 19.472656 9.140625 19.828125 9.109375 19.871094 8.980469 Z M 22.546875 9.054688 C 22.546875 8.847656 21.792969 7.984375 21.453125 7.800781 C 21.195312 7.660156 21.058594 7.652344 20.894531 7.757812 C 20.804688 7.816406 20.902344 7.957031 21.328125 8.386719 C 21.628906 8.6875 21.941406 8.976562 22.023438 9.027344 C 22.199219 9.128906 22.546875 9.148438 22.546875 9.054688 Z M 6.632812 8.867188 C 6.632812 8.6875 6.515625 8.636719 6.425781 8.78125 C 6.367188 8.878906 6.445312 9.035156 6.558594 9.035156 C 6.601562 9.035156 6.632812 8.957031 6.632812 8.867188 Z M 8.625 8.886719 C 8.628906 8.804688 8.679688 8.644531 8.742188 8.53125 C 8.84375 8.347656 8.832031 8.28125 8.636719 7.917969 C 8.320312 7.339844 8.125 7.398438 8.125 8.078125 C 8.125 8.542969 8.617188 9.335938 8.625 8.886719 Z M 13.265625 8.753906 C 13.265625 8.554688 13.195312 8.40625 13.015625 8.230469 C 12.738281 7.957031 12.726562 7.960938 12.65625 8.332031 C 12.613281 8.5625 12.644531 8.632812 12.859375 8.816406 C 13.191406 9.101562 13.265625 9.089844 13.265625 8.753906 Z M 18.605469 8.6875 C 18.773438 8.480469 18.800781 8.398438 18.726562 8.304688 C 18.570312 8.117188 18.429688 8.167969 18.238281 8.484375 C 17.9375 8.980469 18.230469 9.140625 18.605469 8.6875 Z M 21.101562 8.859375 C 21.175781 8.734375 20.589844 8.128906 20.332031 8.0625 C 20.21875 8.035156 20.074219 8.054688 20.007812 8.113281 C 19.90625 8.199219 19.921875 8.25 20.117188 8.464844 C 20.46875 8.847656 20.984375 9.050781 21.101562 8.859375 Z M 4.1875 8.472656 C 4.269531 8.347656 4.773438 7.804688 5.3125 7.265625 C 6.179688 6.390625 6.28125 6.257812 6.246094 6.050781 C 6.21875 5.921875 6.152344 5.816406 6.089844 5.816406 C 5.875 5.816406 4.367188 7.492188 4.046875 8.082031 C 3.878906 8.398438 3.738281 8.703125 3.734375 8.761719 C 3.734375 8.925781 4.011719 8.75 4.1875 8.472656 Z M 11.488281 8.664062 C 11.5625 8.355469 11.5 8.066406 11.347656 8.035156 C 11.246094 8.015625 11.203125 8.089844 11.171875 8.332031 C 11.152344 8.507812 11.152344 8.703125 11.171875 8.757812 C 11.234375 8.9375 11.433594 8.878906 11.488281 8.664062 Z M 4.910156 8.625 C 5.082031 8.546875 5.539062 8.164062 5.925781 7.773438 C 6.488281 7.210938 6.632812 7.015625 6.632812 6.824219 C 6.632812 6.6875 6.613281 6.578125 6.585938 6.578125 C 6.511719 6.578125 5.5625 7.4375 5.277344 7.761719 C 5.132812 7.925781 4.898438 8.179688 4.75 8.328125 C 4.496094 8.582031 4.402344 8.789062 4.542969 8.773438 C 4.578125 8.769531 4.742188 8.703125 4.910156 8.625 Z M 6.335938 8.164062 C 6.503906 7.894531 6.292969 7.910156 6.011719 8.1875 C 5.636719 8.5625 5.617188 8.800781 5.988281 8.507812 C 6.132812 8.394531 6.289062 8.238281 6.335938 8.164062 Z M 9.753906 8.132812 C 9.890625 7.792969 9.84375 7.425781 9.660156 7.425781 C 9.480469 7.425781 9.324219 8.03125 9.445312 8.261719 C 9.574219 8.503906 9.605469 8.492188 9.753906 8.132812 Z M 12.316406 8.066406 C 12.386719 7.777344 12.332031 7.558594 12.175781 7.527344 C 12.003906 7.496094 11.902344 7.875 12.023438 8.105469 C 12.140625 8.332031 12.257812 8.316406 12.316406 8.066406 Z M 7.011719 8.011719 C 7.078125 7.789062 6.925781 7.601562 6.792969 7.738281 C 6.695312 7.839844 6.765625 8.1875 6.882812 8.1875 C 6.921875 8.1875 6.980469 8.109375 7.011719 8.011719 Z M 10.894531 7.671875 C 10.964844 7.261719 10.773438 7.070312 10.578125 7.355469 C 10.410156 7.601562 10.410156 7.753906 10.585938 7.949219 C 10.753906 8.140625 10.824219 8.074219 10.894531 7.671875 Z M 19.628906 7.863281 C 19.652344 7.789062 19.609375 7.757812 19.515625 7.777344 C 19.4375 7.792969 19.351562 7.859375 19.332031 7.921875 C 19.308594 7.992188 19.347656 8.023438 19.441406 8.003906 C 19.523438 7.988281 19.605469 7.925781 19.628906 7.863281 Z M 26.605469 7.839844 C 26.605469 7.652344 24.640625 5.785156 23.929688 5.292969 C 22.695312 4.445312 21.722656 4.050781 20.765625 4.019531 C 20.089844 3.996094 19.96875 4.054688 20.03125 4.386719 C 20.070312 4.59375 20.113281 4.613281 20.644531 4.664062 C 21.648438 4.757812 22.949219 5.363281 23.832031 6.144531 C 24.148438 6.429688 24.652344 6.863281 24.949219 7.113281 C 25.664062 7.714844 26.605469 8.125 26.605469 7.839844 Z M 7.546875 7.675781 C 7.546875 7.578125 7.507812 7.523438 7.464844 7.554688 C 7.355469 7.621094 7.355469 7.847656 7.464844 7.847656 C 7.507812 7.847656 7.546875 7.769531 7.546875 7.675781 Z M 19.027344 7.472656 C 19.113281 7.308594 19.152344 7.148438 19.117188 7.113281 C 19.039062 7.03125 18.652344 7.46875 18.652344 7.640625 C 18.652344 7.867188 18.871094 7.769531 19.027344 7.472656 Z M 9.289062 7.234375 C 9.464844 6.839844 9.488281 6.601562 9.371094 6.410156 C 9.308594 6.304688 9.261719 6.316406 9.089844 6.484375 C 8.757812 6.804688 8.660156 7.128906 8.824219 7.382812 C 9.011719 7.679688 9.105469 7.648438 9.289062 7.234375 Z M 20.511719 7.519531 C 20.535156 7.476562 20.332031 7.363281 20.054688 7.269531 C 19.609375 7.113281 19.554688 7.109375 19.578125 7.230469 C 19.621094 7.453125 20.40625 7.695312 20.511719 7.519531 Z M 11.777344 7.332031 C 11.839844 7.210938 11.84375 7.125 11.789062 7.070312 C 11.664062 6.941406 11.523438 7.066406 11.523438 7.304688 C 11.523438 7.558594 11.652344 7.570312 11.777344 7.332031 Z M 23.953125 6.855469 C 22.933594 5.886719 22.496094 5.617188 21.394531 5.257812 C 20.609375 5.003906 19.988281 4.992188 19.714844 5.222656 C 19.609375 5.3125 19.539062 5.390625 19.5625 5.398438 C 19.585938 5.402344 19.902344 5.417969 20.265625 5.433594 C 21.101562 5.464844 21.695312 5.6875 22.535156 6.289062 C 23.933594 7.292969 24.148438 7.425781 24.347656 7.425781 C 24.53125 7.425781 24.480469 7.355469 23.953125 6.855469 Z M 21.386719 7.183594 C 21.386719 7.070312 21.230469 6.960938 20.597656 6.628906 C 19.988281 6.3125 19.398438 6.21875 19.398438 6.441406 C 19.398438 6.628906 19.5625 6.722656 20.351562 6.996094 C 21.121094 7.261719 21.386719 7.308594 21.386719 7.183594 Z M 7.324219 7.054688 C 7.375 6.914062 7.316406 6.832031 7.160156 6.832031 C 7.097656 6.832031 7.050781 6.910156 7.050781 7.003906 C 7.050781 7.195312 7.257812 7.234375 7.324219 7.054688 Z M 10.363281 6.839844 C 10.496094 6.511719 10.402344 6.347656 10.191406 6.542969 C 10.03125 6.691406 9.984375 6.925781 10.085938 7.03125 C 10.191406 7.136719 10.261719 7.085938 10.363281 6.839844 Z M 22.585938 6.785156 C 21.867188 6.140625 20.144531 5.484375 19.84375 5.738281 C 19.699219 5.859375 19.769531 5.988281 19.980469 5.988281 C 20.070312 5.988281 20.53125 6.191406 21.007812 6.441406 C 22.042969 6.992188 22.25 7.074219 22.628906 7.078125 L 22.917969 7.082031 Z M 11.441406 6.441406 C 11.441406 6.261719 11.210938 6.304688 11.105469 6.5 C 11.054688 6.597656 11.039062 6.742188 11.066406 6.820312 C 11.117188 6.941406 11.140625 6.933594 11.28125 6.761719 C 11.371094 6.652344 11.441406 6.507812 11.441406 6.441406 Z M 18.953125 6.707031 C 19.023438 6.515625 18.914062 6.15625 18.785156 6.15625 C 18.722656 6.15625 18.625 6.214844 18.566406 6.285156 C 18.480469 6.390625 18.480469 6.457031 18.570312 6.625 C 18.691406 6.859375 18.878906 6.898438 18.953125 6.707031 Z M 7.792969 6.234375 C 7.792969 6.203125 7.738281 6.128906 7.667969 6.066406 C 7.558594 5.976562 7.515625 5.984375 7.402344 6.097656 C 7.277344 6.226562 7.277344 6.25 7.425781 6.414062 C 7.574219 6.582031 7.589844 6.582031 7.6875 6.441406 C 7.746094 6.359375 7.792969 6.265625 7.792969 6.234375 Z M 12.242188 6.449219 C 12.269531 6.375 12.269531 6.296875 12.242188 6.265625 C 12.167969 6.195312 11.929688 6.414062 11.984375 6.503906 C 12.054688 6.621094 12.1875 6.59375 12.242188 6.449219 Z M 8.972656 6.011719 C 9.191406 5.796875 9.285156 5.476562 9.128906 5.476562 C 9.066406 5.476562 8.753906 5.929688 8.640625 6.175781 C 8.574219 6.316406 8.75 6.230469 8.972656 6.011719 Z M 10.066406 5.960938 C 10.191406 5.785156 10.207031 5.707031 10.132812 5.632812 C 9.996094 5.492188 9.699219 5.777344 9.699219 6.050781 C 9.699219 6.300781 9.839844 6.269531 10.066406 5.960938 Z M 6.882812 6.027344 C 6.882812 5.957031 6.847656 5.902344 6.800781 5.902344 C 6.753906 5.902344 6.71875 5.957031 6.71875 6.027344 C 6.71875 6.097656 6.753906 6.15625 6.800781 6.15625 C 6.847656 6.15625 6.882812 6.097656 6.882812 6.027344 Z M 11.042969 5.945312 C 11.09375 5.828125 11.113281 5.707031 11.082031 5.675781 C 11.007812 5.601562 10.695312 5.898438 10.695312 6.042969 C 10.695312 6.238281 10.941406 6.167969 11.042969 5.945312 Z M 18.21875 5.96875 C 18.273438 5.914062 18.320312 5.820312 18.320312 5.765625 C 18.320312 5.648438 18.09375 5.394531 17.992188 5.394531 C 17.871094 5.394531 17.824219 5.644531 17.90625 5.859375 C 17.992188 6.09375 18.070312 6.121094 18.21875 5.96875 Z M 11.898438 5.902344 C 11.925781 5.855469 11.910156 5.816406 11.867188 5.816406 C 11.820312 5.816406 11.757812 5.855469 11.730469 5.902344 C 11.703125 5.949219 11.71875 5.988281 11.761719 5.988281 C 11.808594 5.988281 11.867188 5.949219 11.898438 5.902344 Z M 19.203125 5.769531 C 19.277344 5.578125 19.082031 5.398438 18.980469 5.5625 C 18.9375 5.632812 18.902344 5.738281 18.902344 5.796875 C 18.898438 5.949219 19.144531 5.925781 19.203125 5.769531 Z M 7.710938 5.527344 C 7.710938 5.390625 7.492188 5.140625 7.375 5.140625 C 7.261719 5.140625 7.28125 5.246094 7.425781 5.460938 C 7.574219 5.671875 7.710938 5.707031 7.710938 5.527344 Z M 6.980469 5.179688 C 7.019531 4.855469 6.886719 4.664062 6.675781 4.746094 C 6.527344 4.804688 6.519531 4.96875 6.648438 5.261719 C 6.785156 5.570312 6.941406 5.53125 6.980469 5.179688 Z M 10.8125 5.199219 C 10.917969 4.894531 10.8125 4.8125 10.597656 5.03125 C 10.492188 5.140625 10.445312 5.265625 10.476562 5.351562 C 10.550781 5.546875 10.722656 5.46875 10.8125 5.199219 Z M 11.757812 5.375 C 11.886719 5.242188 11.882812 5.140625 11.742188 5.140625 C 11.601562 5.140625 11.421875 5.347656 11.496094 5.421875 C 11.578125 5.503906 11.644531 5.492188 11.757812 5.375 Z M 6.253906 5.078125 C 6.1875 4.691406 6.191406 4.699219 6.023438 4.765625 C 5.765625 4.867188 5.910156 5.394531 6.199219 5.394531 C 6.28125 5.394531 6.296875 5.3125 6.253906 5.078125 Z M 18.851562 5.097656 C 18.953125 4.679688 18.679688 4.453125 18.347656 4.675781 C 18.09375 4.84375 18.101562 5.003906 18.378906 5.207031 C 18.640625 5.40625 18.785156 5.371094 18.851562 5.097656 Z M 9.945312 4.976562 C 10.066406 4.746094 10.054688 4.546875 9.917969 4.546875 C 9.773438 4.546875 9.546875 4.890625 9.597656 5.035156 C 9.648438 5.195312 9.851562 5.160156 9.945312 4.976562 Z M 12.421875 4.933594 C 12.441406 4.835938 12.410156 4.796875 12.339844 4.820312 C 12.277344 4.839844 12.214844 4.925781 12.199219 5.007812 C 12.179688 5.105469 12.210938 5.144531 12.28125 5.121094 C 12.34375 5.101562 12.40625 5.015625 12.421875 4.933594 Z M 19.5625 4.757812 C 19.730469 4.554688 19.597656 4.207031 19.351562 4.207031 C 19.082031 4.207031 19.015625 4.394531 19.191406 4.667969 C 19.355469 4.917969 19.417969 4.933594 19.5625 4.761719 Z M 11.570312 4.679688 C 11.761719 4.539062 11.660156 4.386719 11.460938 4.515625 C 11.308594 4.613281 11.226562 4.800781 11.335938 4.800781 C 11.375 4.800781 11.480469 4.746094 11.570312 4.679688 Z M 10.777344 4.199219 C 10.777344 4.109375 10.746094 4.039062 10.707031 4.039062 C 10.570312 4.039062 10.425781 4.289062 10.480469 4.429688 C 10.523438 4.539062 10.554688 4.546875 10.65625 4.460938 C 10.722656 4.402344 10.777344 4.285156 10.777344 4.199219 Z M 12.332031 4.222656 C 12.351562 4.167969 12.308594 4.125 12.234375 4.125 C 12.164062 4.125 12.105469 4.183594 12.105469 4.257812 C 12.105469 4.40625 12.28125 4.382812 12.332031 4.222656 Z M 11.558594 3.878906 C 11.648438 3.773438 11.667969 3.699219 11.613281 3.664062 C 11.492188 3.585938 11.191406 3.765625 11.191406 3.914062 C 11.191406 4.089844 11.386719 4.070312 11.558594 3.878906 Z M 12.933594 3.910156 C 12.933594 3.839844 12.859375 3.785156 12.765625 3.785156 C 12.675781 3.785156 12.601562 3.839844 12.601562 3.910156 C 12.601562 3.984375 12.675781 4.039062 12.765625 4.039062 C 12.859375 4.039062 12.933594 3.984375 12.933594 3.910156 Z M 13.761719 3.699219 C 14.183594 3.414062 14.355469 3.386719 14.515625 3.582031 C 14.707031 3.820312 15.386719 3.699219 16 3.320312 C 16.390625 3.078125 16.644531 2.980469 16.976562 2.953125 L 17.425781 2.914062 L 17.1875 2.71875 C 16.914062 2.488281 16.765625 2.472656 16.542969 2.644531 C 16.453125 2.710938 16.277344 2.769531 16.144531 2.769531 C 15.851562 2.769531 15.375 2.570312 15.28125 2.410156 C 15.242188 2.339844 15.019531 2.261719 14.765625 2.234375 C 14.351562 2.183594 14.296875 2.199219 14.035156 2.433594 C 13.839844 2.609375 13.667969 2.683594 13.46875 2.683594 C 13.21875 2.683594 13.179688 2.710938 13.179688 2.894531 C 13.179688 3.082031 13.214844 3.105469 13.441406 3.085938 C 13.796875 3.058594 13.828125 3.222656 13.519531 3.535156 C 13.273438 3.789062 13.195312 3.953125 13.328125 3.953125 C 13.359375 3.953125 13.554688 3.839844 13.761719 3.699219 Z M 12.25 3.546875 C 12.269531 3.492188 12.226562 3.445312 12.152344 3.445312 C 12.082031 3.445312 12.019531 3.507812 12.019531 3.582031 C 12.019531 3.730469 12.199219 3.703125 12.25 3.546875 Z M 12.851562 3.363281 C 12.851562 3.316406 12.8125 3.277344 12.765625 3.277344 C 12.722656 3.277344 12.683594 3.316406 12.683594 3.363281 C 12.683594 3.410156 12.722656 3.445312 12.765625 3.445312 C 12.8125 3.445312 12.851562 3.410156 12.851562 3.363281 Z M 11.640625 3.097656 C 11.589844 3.007812 11.441406 3.078125 11.441406 3.195312 C 11.441406 3.238281 11.496094 3.25 11.566406 3.222656 C 11.632812 3.195312 11.667969 3.140625 11.640625 3.097656 Z M 12.300781 2.894531 C 12.328125 2.820312 12.300781 2.769531 12.226562 2.769531 C 12.160156 2.769531 12.105469 2.824219 12.105469 2.894531 C 12.105469 2.964844 12.136719 3.023438 12.179688 3.023438 C 12.21875 3.023438 12.273438 2.964844 12.300781 2.894531 Z M 18.566406 2.53125 C 18.566406 2.417969 18.214844 2.117188 18.007812 2.050781 C 17.773438 1.980469 17.242188 2.152344 17.242188 2.296875 C 17.242188 2.367188 17.4375 2.4375 17.761719 2.492188 C 18.460938 2.605469 18.566406 2.609375 18.566406 2.53125 Z M 16.3125 2.382812 C 16.582031 2.191406 16.539062 2.09375 16.203125 2.152344 C 15.992188 2.1875 15.867188 2.15625 15.746094 2.046875 C 15.558594 1.871094 15.425781 1.945312 15.554688 2.160156 C 15.632812 2.285156 15.964844 2.511719 16.085938 2.511719 C 16.109375 2.515625 16.210938 2.457031 16.3125 2.382812 Z M 13.972656 1.96875 C 14.0625 1.898438 14.289062 1.839844 14.476562 1.839844 C 14.664062 1.839844 15.023438 1.742188 15.277344 1.628906 C 15.78125 1.402344 15.957031 1.410156 16.453125 1.664062 C 16.839844 1.867188 17.183594 1.886719 17.324219 1.710938 C 17.542969 1.441406 17.363281 1.328125 16.726562 1.332031 C 16.394531 1.335938 15.941406 1.277344 15.714844 1.207031 C 15.207031 1.042969 14.945312 1.042969 14.644531 1.203125 C 14.171875 1.453125 13.507812 1.292969 13.230469 0.863281 C 13.054688 0.589844 12.964844 0.597656 12.8125 0.902344 C 12.632812 1.257812 12.648438 1.339844 12.890625 1.277344 C 13.21875 1.195312 13.511719 1.4375 13.511719 1.796875 C 13.511719 2.125 13.683594 2.191406 13.972656 1.96875 Z M 13.179688 1.757812 C 13.179688 1.671875 12.855469 1.414062 12.75 1.414062 C 12.648438 1.414062 12.671875 1.621094 12.785156 1.734375 C 12.902344 1.855469 13.179688 1.871094 13.179688 1.757812 Z M 13.179688 1.757812 "/>
</g>
</svg>
