<?xml version="1.0" encoding="utf-8"?>
<!-- Generator: Adobe Illustrator 17.1.0, SVG Export Plug-In . SVG Version: 6.00 Build 0)  -->
<!DOCTYPE svg PUBLIC "-//W3C//DTD SVG 1.1//EN" "http://www.w3.org/Graphics/SVG/1.1/DTD/svg11.dtd">
<svg version="1.1" id="Layer_1" xmlns="http://www.w3.org/2000/svg" xmlns:xlink="http://www.w3.org/1999/xlink" x="0px" y="0px"
	 viewBox="0 0 200.8 98.3" enable-background="new 0 0 200.8 98.3" xml:space="preserve">
<g id="XMLID_2_">
	<path id="XMLID_83_" fill="#C80000" d="M187.9,75.5l-13.6-1.7c-11.2-1.4-22.6-1.4-33.8,0l-13.6,1.7c-7.1,0-12.8-5.7-12.8-12.8
		l0.7-6.2c1.5-12.4,1.5-25,0-37.4l-0.7-6.2C114,5.8,119.8,0,126.9,0l17.6,2.4c8.6,1.2,17.3,1.2,25.9,0L187.9,0
		c7.1,0,12.8,5.7,12.8,12.8l-0.9,7.6c-1.4,11.5-1.4,23.1,0,34.6l0.9,7.6C200.8,69.8,195,75.5,187.9,75.5z"/>
	<g id="XMLID_30_">
		<path id="XMLID_80_" fill="#000099" d="M5.1,79.7c4.4,0,6.9,2.8,6.9,6.8c0,4.2-2.5,7.3-6.9,7.3H0.3c-0.2,0-0.2-0.1-0.2-0.2
			l0.1-13.6c0-0.2,0.1-0.2,0.2-0.2H5.1z M4.9,92.6c3.5,0,5.7-2.4,5.7-5.9c0-3.6-2.2-5.8-5.6-5.8H1.5l0,11.7H4.9z"/>
		<path id="XMLID_77_" fill="#000099" d="M16.2,93.5c0,0.2-0.1,0.2-0.2,0.2H15c-0.2,0-0.2-0.1-0.2-0.2l0-9.8c0-0.2,0.1-0.2,0.2-0.2
			h0.9c0.2,0,0.2,0.1,0.2,0.2L16.2,93.5z M16.2,80.8c0,0.2-0.1,0.2-0.2,0.2h-0.9c-0.2,0-0.2-0.1-0.2-0.2v-1.3c0-0.2,0.1-0.2,0.2-0.2
			h0.9c0.2,0,0.2,0.1,0.2,0.2V80.8z"/>
		<path id="XMLID_74_" fill="#000099" d="M27.2,85.1h0.1l0-1.3c0-0.2,0.1-0.2,0.2-0.2h0.9c0.2,0,0.2,0.1,0.2,0.2l0.1,9
			c0,3.6-1.8,5.6-4.8,5.6c-2.2,0-3.6-1-4.3-2.6c-0.1-0.2,0-0.3,0.2-0.3h0.9c0.1,0,0.2,0.1,0.3,0.2c0.5,0.9,1.5,1.5,3,1.5
			c2.1,0,3.3-1.2,3.3-4v-0.7l-0.1,0c-0.8,1-1.9,1.4-3.3,1.4c-2.9,0-4.9-2-4.9-5.2c0-3,1.8-5.2,4.6-5.2
			C25.1,83.3,26.4,83.9,27.2,85.1z M20.4,88.7c0,2.5,1.4,3.9,3.5,3.9c1.7,0,3.1-0.9,3.5-2.7v-2.4c-0.4-1.9-1.8-3-3.4-3
			C21.8,84.5,20.4,86.1,20.4,88.7z"/>
		<path id="XMLID_71_" fill="#000099" d="M33.6,93.5c0,0.2-0.1,0.2-0.2,0.2h-0.9c-0.2,0-0.2-0.1-0.2-0.2l0-9.8
			c0-0.2,0.1-0.2,0.2-0.2h0.9c0.2,0,0.2,0.1,0.2,0.2L33.6,93.5z M33.6,80.8c0,0.2-0.1,0.2-0.2,0.2h-0.9c-0.2,0-0.2-0.1-0.2-0.2v-1.3
			c0-0.2,0.1-0.2,0.2-0.2h0.9c0.2,0,0.2,0.1,0.2,0.2V80.8z"/>
		<path id="XMLID_69_" fill="#000099" d="M41.9,84.4c0,0.2-0.1,0.2-0.2,0.2h-2.2l0,8.9c0,0.2-0.1,0.2-0.2,0.2h-1
			c-0.2,0-0.2-0.1-0.2-0.2l0-8.9h-1.8c-0.2,0-0.2-0.1-0.2-0.2v-0.6c0-0.2,0.1-0.2,0.2-0.2h1.8l0-3.9c0-0.2,0.1-0.2,0.2-0.2h0.8
			c0.2,0,0.2,0.1,0.2,0.2l0,3.9h2.2c0.2,0,0.2,0.1,0.2,0.2V84.4z"/>
		<path id="XMLID_66_" fill="#000099" d="M52,86.7l0,6.8c0,0.2-0.1,0.2-0.2,0.2h-0.9c-0.2,0-0.2-0.1-0.2-0.2v-1.4h-0.1
			c-0.7,1.1-2.1,1.8-3.8,1.8c-1.9,0-3.3-0.9-3.3-2.8c0-2,1.6-3,5.6-3.4c1.1-0.1,1.6-0.4,1.6-1.2c0-1.2-0.9-2.1-2.7-2.1
			c-1.5,0-2.4,0.6-2.7,1.7c0,0.1-0.1,0.2-0.3,0.2h-0.8c-0.2,0-0.2-0.1-0.2-0.2c0.4-1.7,1.9-2.8,4.1-2.8C50.6,83.3,52,84.6,52,86.7z
			 M50.6,88.4c-0.3,0.2-0.8,0.3-1.6,0.4c-2.9,0.3-4.1,0.9-4.1,2.2c0,1.2,0.9,1.8,2.2,1.8c2,0,3.4-1.3,3.6-2.4v-1.9L50.6,88.4z"/>
		<path id="XMLID_64_" fill="#000099" d="M57.2,93.5c0,0.2-0.1,0.2-0.2,0.2h-1c-0.2,0-0.2-0.1-0.2-0.2l0.1-14c0-0.2,0.1-0.2,0.2-0.2
			h0.8c0.2,0,0.2,0.1,0.2,0.2L57.2,93.5z"/>
		<path id="XMLID_62_" fill="#000099" d="M69.8,93.5c0,0.2-0.1,0.2-0.2,0.2h-1c-0.2,0-0.2-0.1-0.2-0.2l0-13.6c0-0.2,0.1-0.2,0.2-0.2
			h0.9c0.2,0,0.2,0.1,0.2,0.2L69.8,93.5z"/>
		<path id="XMLID_59_" fill="#000099" d="M83.3,93.5c0,0.2-0.1,0.2-0.2,0.2h-0.9c-0.2,0-0.2-0.1-0.2-0.2v-1.3l-0.1,0
			C81,93.4,79.6,94,78.2,94c-2.8,0-4.6-2.2-4.6-5.2c0-3.3,2-5.4,4.9-5.4c1.4,0,2.5,0.5,3.3,1.5h0.1l0-5.2c0-0.2,0.1-0.2,0.2-0.2H83
			c0.2,0,0.2,0.1,0.2,0.2L83.3,93.5z M74.9,88.6c0,2.6,1.4,4.2,3.6,4.2c1.6,0,3.1-1,3.4-3v-2.4c-0.4-2-1.8-2.9-3.5-2.9
			C76.3,84.5,74.9,86.1,74.9,88.6z"/>
		<path id="XMLID_56_" fill="#000099" d="M95.4,88.5c0,0.2-0.1,0.2-0.2,0.2h-7.9c0,2.4,1.3,4.1,3.6,4.1c1.4,0,2.3-0.6,2.9-1.6
			c0.1-0.1,0.2-0.2,0.3-0.2H95c0.2,0,0.3,0.1,0.2,0.3C94.4,93,92.8,94,90.8,94c-3,0-4.9-2.1-4.9-5.3c0-3.2,2.1-5.4,5-5.4
			C93.9,83.4,95.5,85.6,95.4,88.5z M87.4,87.7H94c-0.1-1.7-1.3-3.1-3.2-3.1C88.9,84.5,87.7,85.8,87.4,87.7z"/>
		<path id="XMLID_54_" fill="#000099" d="M106.5,86.9v6.6c0,0.2-0.1,0.2-0.2,0.2h-1c-0.2,0-0.2-0.1-0.2-0.2v-6.3
			c0-1.8-0.9-2.7-2.4-2.7c-1.5,0-2.7,1-3.2,2.8l0,6.1c0,0.2-0.1,0.2-0.2,0.2h-0.9c-0.2,0-0.2-0.1-0.2-0.2l0-9.8
			c0-0.2,0.1-0.2,0.2-0.2h0.9c0.2,0,0.2,0.1,0.2,0.2l0,1.4l0.1,0c0.8-1.1,2-1.8,3.6-1.8C105.2,83.3,106.5,84.6,106.5,86.9z"/>
		<path id="XMLID_52_" fill="#000099" d="M114.6,84.4c0,0.2-0.1,0.2-0.2,0.2h-2.2l0,8.9c0,0.2-0.1,0.2-0.2,0.2h-1
			c-0.2,0-0.2-0.1-0.2-0.2l0-8.9h-1.8c-0.2,0-0.2-0.1-0.2-0.2v-0.6c0-0.2,0.1-0.2,0.2-0.2h1.8l0-3.9c0-0.2,0.1-0.2,0.2-0.2h0.8
			c0.2,0,0.2,0.1,0.2,0.2l0,3.9h2.2c0.2,0,0.2,0.1,0.2,0.2V84.4z"/>
		<path id="XMLID_49_" fill="#000099" d="M118.4,93.5c0,0.2-0.1,0.2-0.2,0.2h-0.9c-0.2,0-0.2-0.1-0.2-0.2l0-9.8
			c0-0.2,0.1-0.2,0.2-0.2h0.9c0.2,0,0.2,0.1,0.2,0.2L118.4,93.5z M118.3,80.8c0,0.2-0.1,0.2-0.2,0.2h-0.9c-0.2,0-0.2-0.1-0.2-0.2
			v-1.3c0-0.2,0.1-0.2,0.2-0.2h0.9c0.2,0,0.2,0.1,0.2,0.2V80.8z"/>
		<path id="XMLID_47_" fill="#000099" d="M126.7,84.4c0,0.2-0.1,0.2-0.2,0.2h-2.2l0,8.9c0,0.2-0.1,0.2-0.2,0.2h-1
			c-0.2,0-0.2-0.1-0.2-0.2l0-8.9h-1.8c-0.2,0-0.2-0.1-0.2-0.2v-0.6c0-0.2,0.1-0.2,0.2-0.2h1.8l0-3.9c0-0.2,0.1-0.2,0.2-0.2h0.8
			c0.2,0,0.2,0.1,0.2,0.2l0,3.9h2.2c0.2,0,0.2,0.1,0.2,0.2V84.4z"/>
		<path id="XMLID_45_" fill="#000099" d="M136.7,83.5c0.2,0,0.3,0.1,0.2,0.3l-5.3,14.1c0,0.1-0.1,0.2-0.3,0.2h-1
			c-0.2,0-0.3-0.1-0.2-0.3l1.4-3.6l-3.9-10.4c-0.1-0.2,0-0.3,0.2-0.3h0.8c0.1,0,0.2,0.1,0.3,0.2l3.2,8.6h0.1l3.3-8.6
			c0.1-0.1,0.1-0.2,0.3-0.2H136.7z"/>
		<path id="XMLID_43_" fill="#000099" d="M150.4,80.3c0,0.2-0.1,0.2-0.2,0.2c-1.9,0-2.7,0.4-2.7,2.5v0.5h2.6c0.2,0,0.2,0.1,0.2,0.2
			v0.6c0,0.2-0.1,0.2-0.2,0.2h-2.6l0.1,8.9c0,0.2-0.1,0.2-0.2,0.2h-1c-0.2,0-0.2-0.1-0.2-0.2l0-8.9h-1.5c-0.2,0-0.2-0.1-0.2-0.2
			v-0.6c0-0.2,0.1-0.2,0.2-0.2h1.5v-0.4c0-3,1.6-3.8,4.1-3.8c0.2,0,0.2,0.1,0.2,0.2V80.3z"/>
		<path id="XMLID_40_" fill="#000099" d="M161.8,88.5c0,3.2-2.2,5.5-5.1,5.5c-2.8,0-4.9-2.2-4.9-5.3c0-3.2,2.1-5.4,5-5.4
			C159.8,83.3,161.8,85.4,161.8,88.5z M153.2,88.6c0,2.5,1.6,4.2,3.6,4.2c2.1,0,3.5-1.7,3.5-4.1c0-2.6-1.5-4.2-3.6-4.2
			C154.7,84.5,153.2,86.1,153.2,88.6z"/>
		<path id="XMLID_38_" fill="#000099" d="M169.6,84.5c0,0.2-0.1,0.2-0.2,0.2c-1.7,0.1-3.1,0.7-3.5,2.9l0,5.9c0,0.2-0.1,0.2-0.2,0.2
			h-0.9c-0.2,0-0.2-0.1-0.2-0.2l0-9.8c0-0.2,0.1-0.2,0.2-0.2h0.9c0.2,0,0.2,0.1,0.2,0.2l0,1.5l0.1,0c0.7-1.1,1.9-1.9,3.4-2
			c0.2,0,0.2,0.1,0.2,0.2V84.5z"/>
		<path id="XMLID_35_" fill="#000099" d="M179.8,89.2l-1.7,4.3c-0.1,0.1-0.1,0.2-0.3,0.2h-0.9c-0.2,0-0.3-0.1-0.2-0.3l5.3-13.6
			c0.1-0.1,0.1-0.2,0.3-0.2h1.1c0.1,0,0.2,0.1,0.3,0.2l5.3,13.6c0.1,0.2,0,0.3-0.2,0.3H188c-0.1,0-0.2-0.1-0.3-0.2l-1.7-4.3H179.8z
			 M183,81.3L183,81.3l-2.7,6.7h5.2L183,81.3z"/>
		<path id="XMLID_33_" fill="#000099" d="M193.1,93.5c0,0.2-0.1,0.2-0.2,0.2h-1c-0.2,0-0.2-0.1-0.2-0.2l0.1-14
			c0-0.2,0.1-0.2,0.2-0.2h0.8c0.2,0,0.2,0.1,0.2,0.2L193.1,93.5z"/>
		<path id="XMLID_31_" fill="#000099" d="M198.8,93.5c0,0.2-0.1,0.2-0.2,0.2h-1c-0.2,0-0.2-0.1-0.2-0.2l0.1-14
			c0-0.2,0.1-0.2,0.2-0.2h0.8c0.2,0,0.2,0.1,0.2,0.2L198.8,93.5z"/>
	</g>
	<g id="XMLID_24_">
		<path id="XMLID_28_" fill="#000096" d="M45.7,67.1L45.7,67.1c-2.6,0-4.7-2.1-4.7-4.7V43.5c0-2.1-0.4-4.2-1.2-6.1
			c-0.8-1.9-1.9-3.5-3.4-5c-1.5-1.4-3.1-2.6-5-3.4c-2-0.8-4-1.2-6.1-1.2c-2.1,0-4.2,0.4-6.1,1.2c-1.9,0.8-3.6,1.9-5,3.4
			c-1.4,1.5-2.6,3.1-3.4,5c-0.8,2-1.2,4-1.2,6.1v18.9c0,2.6-2.1,4.7-4.7,4.7h0C2.2,67.1,0,65,0,62.4V43.5c0-3.4,0.7-6.7,2-9.8
			c1.3-3,3.1-5.7,5.4-8c2.3-2.3,5-4.1,8-5.4c3.1-1.3,6.4-2,9.8-2c3.4,0,6.7,0.7,9.8,2c3,1.3,5.7,3.1,8,5.4c2.3,2.3,4.1,5,5.4,8
			c1.3,3.1,2,6.4,2,9.8v18.9C50.4,65,48.3,67.1,45.7,67.1z"/>
		<path id="XMLID_25_" fill="#000096" d="M103,10.4c2.6,0,4.7,2.1,4.7,4.7v28.3c0,3.4-0.7,6.7-2,9.8c-1.3,3-3.1,5.7-5.4,8
			c-2.3,2.3-5,4.1-8,5.4c-3.1,1.3-6.4,2-9.8,2c-3.4,0-6.7-0.7-9.8-2c-3-1.3-5.7-3.1-8-5.4c-2.3-2.3-4.1-5-5.4-8
			c-1.3-3.1-2-6.4-2-9.8s0.7-6.7,2-9.8c1.3-3,3.1-5.7,5.4-8c2.3-2.3,5-4.1,8-5.4c3.1-1.3,6.4-2,9.8-2c2.9,0,5.8,0.5,8.5,1.5
			c2.6,0.9,5,2.3,7.2,4.1v-8.7C98.3,12.5,100.4,10.4,103,10.4L103,10.4z M82.5,59.2c2.1,0,4.2-0.4,6.1-1.2c1.9-0.8,3.5-1.9,5-3.4
			c1.4-1.5,2.6-3.1,3.3-5c0.8-2,1.3-4,1.3-6.1c0-2.1-0.4-4.2-1.3-6.1c-0.8-1.9-1.9-3.5-3.3-5c-1.5-1.4-3.1-2.6-5-3.4
			c-2-0.8-4-1.2-6.1-1.2c-2.2,0-4.2,0.4-6.1,1.2c-1.9,0.8-3.6,1.9-5,3.4c-1.4,1.5-2.6,3.1-3.4,5c-0.8,2-1.2,4-1.2,6.1
			c0,2.1,0.4,4.2,1.2,6.1c0.8,1.9,1.9,3.5,3.4,5c1.4,1.4,3.1,2.6,5,3.4C78.3,58.8,80.4,59.2,82.5,59.2z"/>
	</g>
	<g id="XMLID_21_">
		<circle id="XMLID_23_" fill="#CC3232" cx="45.7" cy="62.3" r="4.8"/>
		<circle id="XMLID_22_" fill="#FFFFFF" cx="45.7" cy="62.3" r="1.8"/>
	</g>
	<g id="XMLID_18_">
		<circle id="XMLID_20_" fill="#CC3232" cx="103" cy="15.1" r="4.7"/>
		<circle id="XMLID_19_" fill="#FFFFFF" cx="102.8" cy="15.2" r="1.8"/>
	</g>
	<g id="XMLID_3_">
		<g id="XMLID_11_">
			<path id="XMLID_15_" fill="#FFFFFF" d="M134.9,17.5c-1,1-2.2,1.5-3.6,1.5c-1.4,0-2.6-0.5-3.6-1.5c-1-1-1.5-2.2-1.5-3.6
				c0-1.4,0.5-2.6,1.5-3.6c1-1,2.2-1.5,3.6-1.5c1.4,0,2.6,0.5,3.6,1.5c1,1,1.5,2.2,1.5,3.6C136.4,15.3,135.9,16.5,134.9,17.5z
				 M131.2,22L131.2,22c2.4,0,4.4,2.1,4.4,4.6v33.7c0,2.5-2,4.6-4.4,4.6l0,0c-2.4,0-4.4-2.1-4.4-4.6V26.6
				C126.9,24.1,128.8,22,131.2,22z"/>
			<path id="XMLID_12_" fill="#FFFFFF" d="M185,12.3c2.4,0,4.4,2,4.4,4.4v26.3c0,3.2-0.6,6.2-1.8,9.1c-1.2,2.8-2.9,5.3-5,7.5
				c-2.2,2.1-4.7,3.8-7.5,5c-2.9,1.2-5.9,1.8-9.1,1.8c-3.2,0-6.2-0.6-9.1-1.8c-2.8-1.2-5.3-2.9-7.5-5c-2.1-2.2-3.8-4.7-5-7.5
				c-1.2-2.9-1.8-5.9-1.8-9.1s0.6-6.2,1.8-9.1c1.2-2.8,2.9-5.3,5-7.5c2.2-2.1,4.7-3.8,7.5-5c2.9-1.2,5.9-1.8,9.1-1.8
				c2.7,0,5.4,0.5,7.9,1.4c2.4,0.9,4.7,2.1,6.7,3.8v-8C180.6,14.2,182.5,12.3,185,12.3L185,12.3z M166,57.6c2,0,3.9-0.4,5.7-1.1
				c1.7-0.8,3.3-1.8,4.6-3.1c1.3-1.4,2.4-2.9,3.1-4.6c0.8-1.8,1.2-3.7,1.2-5.7c0-2-0.4-3.9-1.2-5.7c-0.7-1.7-1.8-3.3-3.1-4.6
				c-1.4-1.3-2.9-2.4-4.6-3.1c-1.8-0.8-3.7-1.1-5.7-1.1c-2,0-3.9,0.4-5.7,1.1c-1.8,0.8-3.3,1.8-4.6,3.1c-1.3,1.4-2.4,2.9-3.1,4.6
				c-0.8,1.8-1.1,3.7-1.1,5.7c0,2,0.4,3.9,1.1,5.7c0.8,1.7,1.8,3.3,3.1,4.6c1.3,1.3,2.9,2.4,4.6,3.1C162.1,57.2,164,57.6,166,57.6z"
				/>
		</g>
		<g id="XMLID_4_">
			<path id="XMLID_10_" fill="#FFFFFF" d="M156,40.4c1.4-4.9,6.5-7.8,11.4-6.4c3.5,1,5,3.5,5.1,3.6c1.4,2,3.3,3.5,5.4,4.5
				c0.5,0.2,1-0.2,0.9-0.7l0,0c0-0.2-0.2-0.4-0.4-0.5c-1.9-0.9-3.6-2.3-4.9-4.1c-5.1-7.2-16.4-5.4-18.8,3.3
				c-0.8,2.9-0.4,6.2,1.5,8.9c0,0.1,1.2,1.5,2.1,3.9c0,0.1,0.1,0.2,0.2,0.3c0,0,0,0,0,0c0.5,0.4,1.3-0.2,1-0.8
				c-0.6-1.5-1.3-2.9-2.3-4.2C155.7,45.8,155.2,43,156,40.4z"/>
			<path id="XMLID_9_" fill="#FFFFFF" d="M159.2,41.3c1.3-4.9,7.7-5.9,10.6-1.8c2.1,2.9,4.9,5,8,6.2c0.4,0.1,0.8-0.1,0.9-0.5l0,0
				c0.1-0.3-0.1-0.6-0.4-0.7c-2.9-1.1-5.5-3-7.4-5.7c-3.5-5-11.3-3.7-13,2.2c-0.6,2.2-0.1,4.6,1.1,6.1c1.7,2.4,2.8,5,3.5,7.7
				c0.1,0.2,0.2,0.4,0.5,0.5c0,0,0,0,0,0c0.5,0.1,0.9-0.3,0.8-0.8c-0.7-2.9-1.9-5.6-3.7-8.2C159,44.9,158.7,43.1,159.2,41.3z"/>
			<path id="XMLID_8_" fill="#FFFFFF" d="M167.2,54.9c-0.1-0.6-0.3-1.3-0.4-1.9c-0.1-0.3-0.4-0.6-0.8-0.5c-0.4,0.1-0.6,0.5-0.5,0.8
				c0.2,0.6,0.3,1.2,0.4,1.9c0.1,0.3,0.3,0.6,0.7,0.5c0,0,0,0,0,0C167,55.7,167.2,55.3,167.2,54.9z"/>
			<path id="XMLID_7_" fill="#FFFFFF" d="M168.1,40.6c-0.1-0.3-0.9-1.2-2.2-1.5c-3.6-1-6.4,3.1-4.3,6.1c2.8,4,6.4,6.9,10.3,8.8
				c0.2,0.1,0.4,0.1,0.6,0c0,0,0,0,0,0c0.5-0.3,0.4-0.9,0-1.2c-3.8-1.8-7.2-4.6-9.8-8.4c-1.4-2,0.5-4.7,2.9-4.1c1,0.3,1.4,1,1.5,1
				c2.5,3.5,5.9,6.1,9.8,7.5c0.3,0.1,0.7,0,0.8-0.3l0,0c0.2-0.3,0-0.8-0.4-0.9C173.7,46.3,170.5,43.9,168.1,40.6z"/>
			<path id="XMLID_6_" fill="#FFFFFF" d="M165.4,42.5c-0.2-0.3-0.7-0.4-1-0.1c-0.3,0.2-0.3,0.6-0.1,0.9c2.7,3.9,6.4,6.7,10.5,8.3
				c0.2,0.1,0.5,0,0.7-0.2c0,0,0,0,0,0c0.3-0.3,0.2-0.9-0.2-1C171.6,48.9,168.1,46.3,165.4,42.5z"/>
			<path id="XMLID_5_" fill="#FFFFFF" d="M175.2,35.6c0.2,0.3,0.4,0.5,0.6,0.7c0.4,0.5,1.2-0.1,0.8-0.7c-1.7-2.4-4.4-4.4-7.6-5.2
				c-0.6-0.1-0.8,0.7-0.2,0.9C171.3,32.2,173.5,33.3,175.2,35.6z"/>
		</g>
	</g>
</g>
</svg>
