<svg width="21" height="21" viewBox="0 0 21 21" fill="none" xmlns="http://www.w3.org/2000/svg">
<path d="M11.2913 11.2913L9.70869 9.70869L6.68952 14.3105L11.2913 11.2913ZM10.5 0C4.6996 0 0 4.6996 0 10.5C0 16.3004 4.6996 21 10.5 21C16.3004 21 21 16.3004 21 10.5C21 4.6996 16.3004 0 10.5 0ZM17.0985 7.40038L17.7243 7.14085C17.7654 7.12385 17.8094 7.11513 17.8539 7.11517C17.8984 7.1152 17.9425 7.12401 17.9835 7.14107C18.0246 7.15813 18.0619 7.18312 18.0934 7.21461C18.1248 7.2461 18.1497 7.28348 18.1667 7.3246C18.1838 7.36571 18.1926 7.40978 18.1926 7.4543C18.1926 7.49882 18.1839 7.5429 18.1668 7.58403C18.1498 7.62516 18.1248 7.66253 18.0934 7.69401C18.0619 7.72548 18.0245 7.75044 17.9834 7.76746L17.3589 8.02615C17.2759 8.06049 17.1827 8.06047 17.0997 8.02609C17.0167 7.99172 16.9508 7.92579 16.9164 7.84282C16.882 7.76 16.8819 7.6669 16.916 7.58396C16.9501 7.50102 17.0157 7.435 17.0985 7.40038V7.40038ZM12.9739 3.64113L13.233 3.01536C13.2676 2.93262 13.3336 2.86699 13.4165 2.83286C13.4995 2.79873 13.5926 2.79889 13.6754 2.83331C13.7584 2.86768 13.8243 2.9336 13.8587 3.01657C13.8931 3.09954 13.8931 3.19276 13.8587 3.27575L13.5992 3.90151C13.5648 3.98448 13.4989 4.0504 13.4159 4.08478C13.333 4.11916 13.2397 4.11918 13.1568 4.08484C13.1156 4.06778 13.0781 4.04276 13.0466 4.01121C13.0151 3.97966 12.9902 3.94219 12.9732 3.90097C12.9562 3.85974 12.9475 3.81557 12.9476 3.77098C12.9477 3.72639 12.9566 3.68226 12.9739 3.64113V3.64113ZM10.5 2.20161C10.5898 2.20161 10.676 2.2373 10.7395 2.30082C10.803 2.36434 10.8387 2.45049 10.8387 2.54032V3.21774C10.8387 3.30757 10.803 3.39373 10.7395 3.45725C10.676 3.52077 10.5898 3.55645 10.5 3.55645C10.4102 3.55645 10.324 3.52077 10.2605 3.45725C10.197 3.39373 10.1613 3.30757 10.1613 3.21774V2.54032C10.1613 2.45049 10.197 2.36434 10.2605 2.30082C10.324 2.2373 10.4102 2.20161 10.5 2.20161V2.20161ZM7.3246 2.83331C7.36571 2.81624 7.40978 2.80744 7.4543 2.80741C7.49882 2.80739 7.5429 2.81614 7.58403 2.83317C7.62516 2.85019 7.66253 2.87516 7.69401 2.90664C7.72548 2.93812 7.75044 2.9755 7.76746 3.01663L8.02615 3.64113C8.04419 3.68239 8.05381 3.72684 8.05447 3.77187C8.05512 3.8169 8.04678 3.86161 8.02995 3.90338C8.01312 3.94516 7.98812 3.98315 7.95643 4.01515C7.92474 4.04714 7.88698 4.0725 7.84537 4.08973C7.80376 4.10696 7.75914 4.11571 7.7141 4.11549C7.66907 4.11526 7.62453 4.10606 7.58309 4.08842C7.54166 4.07077 7.50416 4.04504 7.47278 4.01273C7.44141 3.98042 7.4168 3.94218 7.40038 3.90024L7.14085 3.27448C7.10693 3.19159 7.10721 3.09864 7.14165 3.01596C7.17609 2.93328 7.24186 2.86761 7.3246 2.83331V2.83331ZM4.6327 4.63228C4.69622 4.56881 4.78233 4.53315 4.87213 4.53315C4.96192 4.53315 5.04804 4.56881 5.11155 4.63228L5.58871 5.11113C5.65179 5.17459 5.6872 5.26044 5.6872 5.34992C5.6872 5.4394 5.65179 5.52525 5.58871 5.58871C5.5252 5.65218 5.43908 5.68784 5.34928 5.68784C5.25949 5.68784 5.17337 5.65218 5.10986 5.58871L4.63101 5.10986C4.56809 5.04623 4.53291 4.96029 4.53315 4.87081C4.53339 4.78132 4.56902 4.69557 4.63228 4.63228H4.6327ZM2.20161 10.5C2.20161 10.4102 2.2373 10.324 2.30082 10.2605C2.36434 10.197 2.45049 10.1613 2.54032 10.1613H3.21774C3.30757 10.1613 3.39373 10.197 3.45725 10.2605C3.52077 10.324 3.55645 10.4102 3.55645 10.5C3.55645 10.5898 3.52077 10.676 3.45725 10.7395C3.39373 10.803 3.30757 10.8387 3.21774 10.8387H2.54032C2.45049 10.8387 2.36434 10.803 2.30082 10.7395C2.2373 10.676 2.20161 10.5898 2.20161 10.5ZM3.90151 13.5996L3.27575 13.8592C3.23463 13.8761 3.19057 13.8849 3.14608 13.8848C3.10159 13.8848 3.05755 13.876 3.01646 13.8589C2.97538 13.8419 2.93805 13.8169 2.90663 13.7854C2.8752 13.7539 2.85029 13.7165 2.83331 13.6754C2.81624 13.6343 2.80744 13.5902 2.80741 13.5457C2.80739 13.5012 2.81614 13.4571 2.83317 13.416C2.85019 13.3748 2.87516 13.3375 2.90664 13.306C2.93812 13.2745 2.9755 13.2496 3.01663 13.2325L3.64113 12.9739C3.72411 12.9395 3.81734 12.9395 3.90031 12.9739C3.98328 13.0083 4.04919 13.0742 4.08357 13.1572C4.11799 13.24 4.11815 13.3331 4.08402 13.416C4.04989 13.499 3.98425 13.565 3.90151 13.5996V13.5996ZM4.08484 7.84155C4.06795 7.8829 4.04304 7.9205 4.01156 7.95219C3.98007 7.98387 3.94263 8.00902 3.90139 8.02617C3.86015 8.04333 3.81593 8.05216 3.77126 8.05216C3.72659 8.05215 3.68237 8.04331 3.64113 8.02615L3.01536 7.76704C2.93262 7.73242 2.86699 7.6664 2.83286 7.58346C2.79873 7.50051 2.79889 7.40742 2.83331 7.3246C2.86768 7.24163 2.9336 7.1757 3.01657 7.14133C3.09954 7.10695 3.19276 7.10693 3.27575 7.14127L3.90151 7.40081C3.98438 7.43518 4.05022 7.50103 4.08459 7.5839C4.11896 7.66677 4.11905 7.75989 4.08484 7.84282V7.84155ZM8.02615 17.3589L7.76704 17.9846C7.75002 18.0258 7.72508 18.0631 7.69362 18.0946C7.66217 18.1261 7.62483 18.151 7.58372 18.1681C7.54262 18.1851 7.49856 18.1939 7.45406 18.1939C7.40957 18.1939 7.3655 18.1852 7.32438 18.1682C7.28327 18.1512 7.24591 18.1262 7.21443 18.0948C7.18296 18.0633 7.15798 18.026 7.14094 17.9849C7.1239 17.9438 7.11512 17.8997 7.1151 17.8552C7.11508 17.8107 7.12383 17.7666 7.14085 17.7255L7.40038 17.0998C7.4168 17.0578 7.44141 17.0196 7.47278 16.9873C7.50416 16.955 7.54166 16.9292 7.58309 16.9116C7.62453 16.8939 7.66907 16.8847 7.7141 16.8845C7.75914 16.8843 7.80376 16.893 7.84537 16.9103C7.88698 16.9275 7.92474 16.9529 7.95643 16.9849C7.98812 17.0169 8.01312 17.0548 8.02995 17.0966C8.04678 17.1384 8.05512 17.1831 8.05447 17.2281C8.05381 17.2732 8.04419 17.3176 8.02615 17.3589V17.3589ZM10.8387 18.4597C10.8387 18.5495 10.803 18.6357 10.7395 18.6992C10.676 18.7627 10.5898 18.7984 10.5 18.7984C10.4102 18.7984 10.324 18.7627 10.2605 18.6992C10.197 18.6357 10.1613 18.5495 10.1613 18.4597V17.7823C10.1613 17.6924 10.197 17.6063 10.2605 17.5428C10.324 17.4792 10.4102 17.4435 10.5 17.4435C10.5898 17.4435 10.676 17.4792 10.7395 17.5428C10.803 17.6063 10.8387 17.6924 10.8387 17.7823V18.4597ZM13.6754 18.1667C13.6343 18.1838 13.5902 18.1926 13.5457 18.1926C13.5012 18.1926 13.4571 18.1839 13.416 18.1668C13.3748 18.1498 13.3375 18.1248 13.306 18.0934C13.2745 18.0619 13.2496 18.0245 13.2325 17.9834L12.9739 17.3589C12.9395 17.2759 12.9395 17.1827 12.9739 17.0997C13.0083 17.0167 13.0742 16.9508 13.1572 16.9164C13.2402 16.8821 13.3334 16.8821 13.4164 16.9165C13.4993 16.9509 13.5652 17.0168 13.5996 17.0998L13.8592 17.7255C13.8931 17.8084 13.8928 17.9014 13.8584 17.984C13.8239 18.0667 13.7581 18.1324 13.6754 18.1667ZM16.3673 16.3677C16.3038 16.4312 16.2177 16.4668 16.1279 16.4668C16.0381 16.4668 15.952 16.4312 15.8884 16.3677L15.4113 15.8889C15.3482 15.8254 15.3128 15.7396 15.3128 15.6501C15.3128 15.5606 15.3482 15.4748 15.4113 15.4113C15.4748 15.3478 15.5609 15.3122 15.6507 15.3122C15.7405 15.3122 15.8266 15.3478 15.8901 15.4113L16.369 15.8901C16.4319 15.9538 16.4671 16.0397 16.4669 16.1292C16.4666 16.2187 16.431 16.3044 16.3677 16.3677H16.3673ZM11.7807 11.7807L4.33294 16.6671L9.21925 9.21925L16.6671 4.33294L11.7807 11.7807ZM18.1667 13.6754C18.1323 13.7584 18.0664 13.8243 17.9834 13.8587C17.9005 13.8931 17.8072 13.8931 17.7243 13.8587L17.0985 13.5992C17.0155 13.5648 16.9496 13.4989 16.9152 13.4159C16.8808 13.333 16.8808 13.2397 16.9152 13.1568C16.9322 13.1156 16.9572 13.0781 16.9888 13.0466C17.0203 13.0151 17.0578 12.9902 17.099 12.9732C17.1403 12.9562 17.1844 12.9475 17.229 12.9476C17.2736 12.9477 17.3177 12.9566 17.3589 12.9739L17.9846 13.233C18.0674 13.2676 18.133 13.3336 18.1671 13.4165C18.2013 13.4995 18.2011 13.5926 18.1667 13.6754V13.6754ZM18.4597 10.8387H17.7823C17.6924 10.8387 17.6063 10.803 17.5428 10.7395C17.4792 10.676 17.4435 10.5898 17.4435 10.5C17.4435 10.4102 17.4792 10.324 17.5428 10.2605C17.6063 10.197 17.6924 10.1613 17.7823 10.1613H18.4597C18.5495 10.1613 18.6357 10.197 18.6992 10.2605C18.7627 10.324 18.7984 10.4102 18.7984 10.5C18.7984 10.5898 18.7627 10.676 18.6992 10.7395C18.6357 10.803 18.5495 10.8387 18.4597 10.8387Z" fill="white"/>
</svg>
